<?xml version="1.0" standalone="no"?>
<!DOCTYPE svg PUBLIC "-//W3C//DTD SVG 20010904//EN"
 "http://www.w3.org/TR/2001/REC-SVG-20010904/DTD/svg10.dtd">
<svg version="1.0" xmlns="http://www.w3.org/2000/svg"
 width="512.000000pt" height="512.000000pt" viewBox="0 0 512.000000 512.000000"
 preserveAspectRatio="xMidYMid meet">

<g transform="translate(0.000000,512.000000) scale(0.100000,-0.100000)"
fill="#000000" stroke="none">
<path d="M2258 4330 c-95 -15 -164 -54 -254 -144 -76 -77 -112 -132 -128 -200
-6 -23 -4 -27 8 -23 10 4 16 1 16 -7 0 -9 -7 -12 -20 -9 -17 4 -20 0 -20 -24
0 -45 -28 -66 -76 -55 -22 4 -104 7 -184 6 -80 -1 -183 -3 -230 -3 -86 0 -186
-18 -231 -41 -25 -13 -64 -47 -135 -119 -24 -25 -66 -88 -94 -140 -63 -120
-67 -131 -43 -132 15 0 14 -2 -4 -9 -12 -5 -25 -21 -29 -35 -8 -31 17 -96 42
-110 10 -5 25 -16 33 -24 17 -15 74 -9 98 10 26 22 50 82 67 164 20 95 78 216
123 256 40 34 84 48 188 56 47 3 87 12 97 20 11 10 18 11 23 4 3 -6 22 -11 42
-11 29 0 34 3 29 17 -6 16 -5 16 11 1 14 -13 46 -17 133 -21 84 -3 116 -8 121
-18 4 -8 12 -45 17 -83 22 -140 123 -281 250 -345 34 -17 62 -29 62 -26 0 3
12 -2 26 -12 18 -12 48 -17 90 -18 35 0 64 -3 64 -7 0 -12 88 -9 95 3 4 6 14
8 22 5 8 -3 20 -3 26 1 7 5 21 8 32 8 11 0 20 5 20 12 0 19 15 28 24 15 11
-18 41 -4 34 16 -4 13 -3 14 5 4 21 -30 175 83 202 148 7 17 16 30 21 30 5 0
9 11 9 25 0 14 4 25 10 25 14 0 42 59 36 76 -3 7 -1 16 3 18 14 9 21 89 9 103
-7 9 -7 13 0 13 7 0 9 26 5 74 -6 84 -11 80 89 92 32 3 56 10 53 14 -3 5 4 6
15 3 11 -3 27 0 36 8 12 10 15 10 12 -1 -2 -9 16 -17 57 -25 35 -6 54 -13 45
-17 -13 -6 -12 -9 5 -23 13 -11 19 -25 17 -45 -3 -24 1 -32 20 -39 l23 -10
-22 0 c-27 -1 -29 -9 -7 -25 19 -15 8 -46 -16 -46 -27 0 -142 -172 -126 -188
3 -3 -1 -10 -10 -16 -36 -27 -48 -174 -17 -208 9 -10 22 -18 28 -18 7 0 15 -7
19 -15 3 -9 19 -15 41 -15 40 0 85 36 85 68 0 10 4 22 8 27 5 6 15 36 22 68 7
31 15 57 18 57 3 0 32 -28 66 -63 113 -116 271 -175 431 -162 90 7 142 20 168
43 9 8 17 12 17 8 0 -12 77 33 133 79 31 25 57 52 57 60 0 8 6 18 13 22 16 9
67 100 67 118 0 6 8 27 17 46 38 75 9 335 -49 448 -30 59 -42 71 -130 130 -54
36 -128 79 -165 95 -73 31 -166 46 -177 27 -5 -8 -14 -7 -29 3 -17 11 -92 16
-92 6 0 -1 -9 -4 -20 -5 -31 -4 -105 -41 -162 -81 -50 -35 -133 -125 -139
-152 -4 -15 -11 -33 -17 -39 -13 -18 -62 -16 -97 2 -22 11 -30 12 -30 3 0 -9
-3 -9 -12 0 -15 15 -132 16 -159 2 -14 -8 -19 -7 -19 2 0 9 -3 9 -8 2 -4 -5
-16 -10 -27 -11 -11 0 -36 -3 -55 -7 -34 -7 -36 -6 -49 29 -14 40 -93 125
-115 125 -8 0 -28 11 -44 25 -17 14 -35 25 -41 25 -6 0 -19 4 -29 9 -124 66
-232 88 -344 71z m62 -60 c0 -5 -5 -10 -11 -10 -5 0 -7 5 -4 10 3 6 8 10 11
10 2 0 4 -4 4 -10z m-16 -56 c9 -24 7 -28 -9 -14 -17 14 -20 30 -6 30 5 0 12
-7 15 -16z m1606 6 c0 -5 -10 -10 -22 -9 -22 0 -22 1 -3 9 11 5 21 9 23 9 1 1
2 -3 2 -9z m99 -11 c-16 -10 -23 -4 -14 10 3 6 11 8 17 5 6 -4 5 -9 -3 -15z
m-159 -35 c0 -8 -5 -12 -10 -9 -6 4 -8 11 -5 16 9 14 15 11 15 -7z m55 6 c3
-5 1 -10 -4 -10 -6 0 -11 5 -11 10 0 6 2 10 4 10 3 0 8 -4 11 -10z m124 3 c-3
-21 2 -33 16 -33 8 0 15 -4 15 -10 0 -11 -11 -13 -34 -4 -9 3 -13 10 -10 15 3
5 -2 6 -10 3 -10 -4 -16 -1 -16 9 0 9 8 18 18 20 9 3 18 5 20 6 1 0 1 -2 1 -6z
m-1635 -30 c9 4 16 3 16 -1 0 -4 26 -16 58 -26 31 -10 65 -22 75 -27 11 -6 17
-5 17 1 0 6 6 5 14 -2 8 -7 12 -16 10 -19 -2 -4 12 -19 30 -33 52 -39 96 -137
103 -227 5 -67 -4 -143 -22 -192 -5 -12 -2 -17 10 -17 9 0 13 -5 10 -10 -4 -6
-11 -8 -16 -4 -12 7 -61 -35 -54 -46 8 -13 -120 -88 -179 -105 -70 -20 -138
-15 -221 16 -64 24 -155 102 -179 154 -9 19 -20 35 -25 35 -4 0 -8 30 -9 68
-1 37 -6 82 -11 99 -7 22 -6 32 1 30 6 -1 16 19 23 45 35 132 133 226 272 261
29 8 51 9 54 3 4 -5 14 -6 23 -3z m1389 -12 c19 1 55 -9 86 -24 29 -15 58 -24
62 -21 5 3 9 -1 9 -9 0 -14 49 -42 58 -32 3 2 10 -3 16 -14 38 -64 64 -120 67
-141 4 -21 -1 -25 -36 -32 -25 -6 -49 -5 -63 2 -31 14 -109 13 -114 -1 -3 -9
-10 -8 -28 1 -18 10 -59 11 -169 6 -80 -4 -149 -10 -153 -14 -4 -4 -27 -6 -50
-4 -34 3 -46 9 -55 28 -9 19 -8 24 3 24 8 0 11 6 8 15 -4 8 -2 15 2 15 5 0 22
21 38 48 41 65 82 103 141 131 65 31 106 40 128 29 10 -5 33 -8 50 -7z m287
-28 c0 -5 -9 -19 -20 -33 -19 -25 -19 -25 -17 -2 1 12 7 22 14 22 7 0 13 5 13
10 0 6 2 10 5 10 3 0 5 -3 5 -7z m67 -30 c-13 -3 -17 -11 -14 -24 6 -22 -3
-25 -21 -7 -14 14 -16 32 -3 23 5 -3 12 -1 16 5 3 5 14 9 23 9 14 -1 14 -2 -1
-6z m-1411 -39 c-4 -9 -9 -15 -11 -12 -3 3 -3 13 1 22 4 9 9 15 11 12 3 -3 3
-13 -1 -22z m619 16 c-3 -5 -14 -10 -23 -10 -15 0 -15 2 -2 10 20 13 33 13 25
0z m65 0 c0 -5 -2 -10 -4 -10 -3 0 -8 5 -11 10 -3 6 -1 10 4 10 6 0 11 -4 11
-10z m-295 -20 c3 -5 1 -10 -4 -10 -6 0 -11 5 -11 10 0 6 2 10 4 10 3 0 8 -4
11 -10z m1052 -17 c-3 -3 -11 -2 -17 2 -9 6 -9 10 1 16 14 8 27 -7 16 -18z
m-1170 -75 c-3 -8 -6 -5 -6 6 -1 11 2 17 5 13 3 -3 4 -12 1 -19z m283 -18 c0
-11 -2 -20 -4 -20 -2 0 -6 9 -9 20 -3 11 -1 20 4 20 5 0 9 -9 9 -20z m90 -31
c0 -5 -4 -9 -10 -9 -5 0 -10 7 -10 16 0 8 5 12 10 9 6 -3 10 -10 10 -16z
m-2007 -69 c-3 -11 -9 -20 -14 -20 -5 0 -9 9 -9 20 0 11 6 20 14 20 9 0 12 -7
9 -20z m2466 -21 c-29 -18 -36 -10 -17 21 11 17 14 18 21 4 6 -11 5 -19 -4
-25z m326 11 c3 -5 1 -10 -4 -10 -6 0 -11 5 -11 10 0 6 2 10 4 10 3 0 8 -4 11
-10z m-2883 -22 c-5 -7 -12 -22 -15 -33 -4 -16 -5 -15 -6 6 -1 27 6 39 22 39
6 0 5 -5 -1 -12z m369 -21 c-10 -9 -11 -8 -5 6 3 10 9 15 12 12 3 -3 0 -11 -7
-18z m2424 -6 c-3 -6 4 -15 15 -21 21 -11 27 -48 11 -78 -5 -9 -15 -32 -21
-50 -16 -42 -122 -140 -180 -165 -49 -22 -190 -34 -225 -18 -109 47 -130 56
-137 53 -4 -1 -8 4 -8 12 0 8 -15 27 -32 42 -18 15 -33 32 -33 38 0 6 -8 22
-18 36 -24 34 -22 77 4 91 45 23 88 31 239 40 85 6 162 11 170 11 8 1 58 -1
110 -5 52 -3 86 -3 75 0 l-20 6 20 8 c28 11 37 11 30 0z m-1252 -96 c-3 -9 -8
-14 -10 -11 -3 3 -2 9 2 15 9 16 15 13 8 -4z m-1736 -27 c-3 -8 -6 -5 -6 6 -1
11 2 17 5 13 3 -3 4 -12 1 -19z m1720 -20 c-3 -8 -6 -5 -6 6 -1 11 2 17 5 13
3 -3 4 -12 1 -19z m-1797 -13 c14 -19 14 -19 -2 -6 -10 7 -18 18 -18 24 0 6 1
8 3 6 1 -2 9 -13 17 -24z m2415 -54 c-3 -6 -11 -11 -16 -11 -5 0 -4 6 3 14 14
16 24 13 13 -3z m-1485 -25 c0 -3 -4 -8 -10 -11 -5 -3 -10 -1 -10 4 0 6 5 11
10 11 6 0 10 -2 10 -4z m-1025 -76 c3 -5 2 -10 -4 -10 -5 0 -13 5 -16 10 -3 6
-2 10 4 10 5 0 13 -4 16 -10z m3122 -26 c-3 -3 -12 -4 -19 -1 -8 3 -5 6 6 6
11 1 17 -2 13 -5z m-767 -24 c0 -5 -2 -10 -4 -10 -3 0 -8 5 -11 10 -3 6 -1 10
4 10 6 0 11 -4 11 -10z m140 -20 c0 -5 -2 -10 -4 -10 -3 0 -8 5 -11 10 -3 6
-1 10 4 10 6 0 11 -4 11 -10z m-850 -15 c-7 -9 -15 -13 -17 -11 -7 7 7 26 19
26 6 0 6 -6 -2 -15z m1250 5 c0 -5 -5 -10 -11 -10 -5 0 -7 5 -4 10 3 6 8 10
11 10 2 0 4 -4 4 -10z m-123 -42 c-3 -8 -6 -5 -6 6 -1 11 2 17 5 13 3 -3 4
-12 1 -19z m-462 2 c3 -5 1 -10 -4 -10 -6 0 -11 5 -11 10 0 6 2 10 4 10 3 0 8
-4 11 -10z m700 -20 c-3 -5 -12 -10 -18 -10 -7 0 -6 4 3 10 19 12 23 12 15 0z
m-1462 -27 c-7 -2 -19 -2 -25 0 -7 3 -2 5 12 5 14 0 19 -2 13 -5z m1267 -3 c0
-5 -5 -10 -11 -10 -5 0 -7 5 -4 10 3 6 8 10 11 10 2 0 4 -4 4 -10z"/>
<path d="M2369 4073 c-2 -6 -15 -13 -29 -15 -36 -6 -142 -62 -166 -89 -34 -38
-62 -85 -44 -75 8 5 5 -2 -7 -15 -38 -42 -58 -129 -33 -144 6 -3 10 -19 10
-36 0 -27 3 -29 35 -29 63 0 140 63 104 85 -6 4 -8 14 -5 22 4 9 2 21 -4 28
-8 9 -8 15 0 20 5 3 10 17 10 29 0 13 14 49 30 80 20 37 26 56 18 57 -7 1 9 5
36 10 27 4 59 17 72 30 24 22 23 45 -1 35 -8 -3 -15 0 -18 7 -3 9 -5 9 -8 0z
m-149 -229 c0 -2 -9 -4 -20 -4 -11 0 -20 4 -20 9 0 5 9 7 20 4 11 -3 20 -7 20
-9z m-90 -58 c0 -3 -4 -8 -10 -11 -5 -3 -10 -1 -10 4 0 6 5 11 10 11 6 0 10
-2 10 -4z"/>
<path d="M1113 3193 c-113 -4 -113 -4 -119 -30 l-7 -27 -9 23 c-7 21 -12 23
-51 16 -23 -4 -60 -9 -82 -11 -153 -14 -245 -38 -245 -62 0 -15 -2 -15 -10 -2
-9 13 -14 11 -33 -10 -13 -14 -30 -26 -38 -28 -36 -7 -139 -169 -139 -220 0
-10 -4 -22 -10 -28 -15 -15 -31 -115 -21 -128 6 -7 4 -18 -5 -30 -11 -15 -13
-43 -8 -120 6 -117 19 -170 40 -162 8 3 14 1 14 -4 0 -6 -5 -10 -11 -10 -20 0
0 -46 53 -126 85 -125 206 -194 339 -194 62 0 79 11 57 38 -12 15 -11 16 5 3
9 -7 17 -19 17 -25 0 -9 71 -13 285 -14 194 0 285 3 285 10 0 7 4 7 13 1 16
-13 175 -15 183 -2 3 6 10 6 17 1 18 -15 593 -26 602 -12 4 7 11 8 18 1 7 -5
194 -9 479 -8 256 1 465 0 463 -4 -2 -3 84 -6 192 -6 144 -1 192 2 184 10 -16
16 -13 27 8 27 12 0 18 -7 17 -17 -1 -21 48 -31 68 -13 10 8 15 7 20 -5 5 -13
29 -15 173 -14 93 1 173 6 180 11 7 5 14 5 18 -2 9 -14 182 -13 191 1 5 8 9 7
14 -1 13 -20 40 -3 40 25 0 14 5 25 11 25 7 0 9 -10 7 -24 -3 -15 0 -27 8 -30
27 -10 314 -5 314 6 0 7 4 7 14 -1 9 -7 29 -9 55 -5 32 5 44 13 56 37 15 31
12 67 -6 67 -6 0 -8 4 -4 10 3 5 -9 17 -27 27 -30 16 -69 18 -375 20 -189 2
-343 0 -343 -5 0 -4 6 -14 12 -21 11 -10 10 -11 -4 -6 -9 4 -19 13 -22 21 -5
13 -56 15 -350 13 -189 -1 -349 2 -356 6 -6 4 -17 2 -25 -5 -10 -8 -19 -8 -33
-1 -11 6 -151 10 -373 9 -195 0 -391 3 -436 7 -68 6 -83 5 -83 -6 0 -11 -2
-11 -8 -2 -5 8 -34 12 -87 10 -74 -2 -80 -4 -79 -23 1 -11 -4 -21 -11 -21 -14
0 -14 14 -2 35 10 15 -16 16 -44 2 -14 -8 -19 -7 -19 3 0 19 -237 32 -259 14
-12 -10 -14 -9 -8 5 4 13 -2 18 -33 23 -22 4 -43 4 -48 1 -6 -3 -12 3 -15 13
-3 11 -17 22 -37 26 -17 4 -29 9 -26 12 9 9 -56 93 -71 93 -9 0 -12 7 -9 18 3
10 -3 35 -13 56 -11 20 -23 66 -26 101 -5 47 -12 65 -24 68 -14 4 -14 5 1 6
12 1 19 13 23 39 3 20 12 57 21 82 9 25 18 60 21 77 3 19 10 30 15 27 6 -4 13
-2 17 3 21 30 104 84 153 98 56 16 56 16 48 45 -5 18 -5 30 1 30 5 0 9 -9 9
-19 0 -27 22 -32 83 -20 75 15 331 25 645 27 106 1 152 4 147 11 -8 14 1 14
24 1 10 -5 106 -9 212 -9 107 -1 237 -2 289 -3 137 -3 177 0 201 13 15 8 23 8
28 0 5 -7 99 -10 296 -10 160 1 301 1 315 0 14 0 94 -4 179 -7 123 -5 155 -4
163 7 7 11 11 11 15 2 5 -14 133 -19 133 -5 0 4 36 6 79 4 91 -4 137 13 147
53 7 28 -15 68 -46 85 -24 13 -94 21 -240 27 -164 8 -192 7 -201 -8 -7 -11 -9
-10 -9 4 0 12 -8 17 -28 17 -15 0 -32 -4 -38 -9 -5 -6 -24 -7 -49 -1 -29 6
-677 8 -802 2 -7 -1 -25 -1 -40 0 -16 0 -90 -1 -166 -3 -125 -4 -140 -6 -154
-24 -15 -20 -15 -20 -9 1 6 21 5 21 -184 22 -169 1 -190 -1 -190 -15 0 -15 -2
-15 -18 0 -16 15 -45 17 -197 17 -156 0 -181 -2 -198 -17 -19 -17 -20 -17 -14
0 6 16 -7 17 -191 16 -108 0 -245 2 -304 6 -102 7 -108 7 -108 -11 -1 -17 -1
-18 -11 -2 -7 13 -23 17 -72 16 -34 -1 -68 -6 -74 -11 -9 -6 -13 -6 -13 2 0
11 -39 11 -317 4z m2 -23 c3 -5 1 -10 -4 -10 -6 0 -11 5 -11 10 0 6 2 10 4 10
3 0 8 -4 11 -10z m200 1 c3 -5 1 -12 -5 -16 -5 -3 -10 1 -10 9 0 18 6 21 15 7z
m2345 -1 c0 -5 -4 -10 -10 -10 -5 0 -10 5 -10 10 0 6 5 10 10 10 6 0 10 -4 10
-10z m730 -31 c0 -6 -4 -7 -10 -4 -5 3 -10 11 -10 16 0 6 5 7 10 4 6 -3 10
-11 10 -16z m-2791 -15 c-7 -8 -12 -13 -13 -12 -1 2 -7 10 -14 19 -11 14 -9
16 13 11 21 -3 23 -7 14 -18z m123 4 c-7 -7 -12 -8 -12 -2 0 14 12 26 19 19 2
-3 -1 -11 -7 -17z m-568 -4 c24 -24 19 -30 -6 -8 -13 10 -25 20 -27 21 -2 2 1
3 7 3 6 0 18 -7 26 -16z m196 6 c0 -5 -5 -10 -11 -10 -6 0 -8 -8 -4 -19 3 -11
2 -22 -3 -25 -5 -3 -7 -16 -5 -30 3 -13 1 -26 -5 -30 -5 -3 -7 6 -4 21 3 18 1
24 -7 19 -16 -10 -14 -51 5 -67 14 -11 18 -10 30 6 8 10 14 13 14 7 0 -21 -5
-26 -24 -29 -11 -2 -21 -5 -23 -7 -7 -6 9 -36 19 -36 6 0 5 6 -2 15 -9 11 -9
15 -1 15 6 0 14 -6 17 -14 4 -11 10 -11 29 -2 13 6 21 14 19 18 -7 11 4 10 27
-3 27 -14 16 -26 -31 -34 -22 -4 -40 -10 -40 -13 1 -12 30 -46 30 -35 0 6 9
13 20 16 11 3 20 1 20 -4 0 -5 -7 -9 -16 -9 -8 0 -12 -4 -9 -10 3 -5 -3 -10
-14 -10 -12 0 -21 -4 -21 -9 0 -5 -8 -7 -18 -4 -10 2 -24 -3 -31 -11 -11 -13
-11 -16 3 -16 9 0 16 -4 16 -9 0 -16 -55 5 -58 22 -3 13 4 17 23 17 19 0 29 6
32 21 4 16 8 17 14 7 7 -10 9 -10 9 2 0 27 -20 39 -46 30 -15 -6 -24 -6 -24 0
0 6 5 10 10 10 6 0 10 5 10 12 0 6 -11 1 -24 -12 -15 -13 -32 -20 -40 -17 -9
4 -16 2 -16 -4 0 -5 7 -12 15 -15 19 -8 19 -33 1 -40 -16 -6 -10 -34 7 -34 13
0 57 -40 57 -51 0 -5 -9 -13 -19 -18 -16 -9 -18 -8 -14 8 3 12 -7 27 -28 45
-29 24 -31 30 -20 48 10 16 9 26 -6 58 -21 45 -40 47 -35 4 3 -23 1 -27 -9
-16 -19 18 -29 15 -29 -9 0 -19 4 -21 30 -15 19 3 29 2 25 -4 -3 -6 -16 -10
-28 -10 -18 0 -19 -2 -7 -10 19 -12 2 -44 -26 -48 -16 -3 -16 -1 -4 7 12 9 12
11 -3 17 -9 3 -17 10 -17 16 0 5 5 6 10 3 6 -3 10 1 10 10 0 12 -4 14 -19 6
-16 -9 -19 -7 -19 12 -1 51 -8 87 -20 99 -9 9 -12 9 -12 -3 0 -12 -2 -12 -9 0
-5 7 -14 12 -21 9 -8 -2 -4 -14 14 -35 28 -33 35 -53 12 -34 -10 9 -15 8 -20
-4 -3 -8 -12 -15 -20 -15 -9 0 -13 -11 -13 -32 1 -18 4 -35 7 -38 11 -10 44
-55 36 -47 -5 4 -20 -3 -33 -15 -21 -19 -23 -20 -23 -4 0 10 -5 16 -12 13 -50
-18 -58 -18 -58 1 0 11 -10 32 -21 46 -17 21 -24 25 -30 14 -6 -9 -8 -4 -7 14
2 21 6 27 19 23 22 -7 36 14 18 26 -7 4 -14 18 -14 31 -1 13 -5 30 -10 38 -5
9 -4 15 3 18 7 2 12 10 12 18 0 7 -6 11 -13 8 -8 -3 -20 2 -27 10 -10 13 -9
17 11 25 30 11 41 1 43 -37 1 -19 6 -29 16 -28 23 2 46 19 53 40 6 15 10 16
22 6 8 -7 13 -15 11 -19 -2 -3 7 -6 20 -6 13 0 24 6 24 13 0 19 30 14 38 -7 7
-18 8 -18 39 -2 29 16 30 18 12 29 -25 16 -24 32 1 25 15 -4 19 -2 15 10 -4 8
1 17 9 20 19 8 21 -14 4 -31 -9 -9 -8 -15 8 -27 10 -8 14 -15 7 -15 -9 0 -9
-5 0 -23 31 -60 77 -73 77 -22 0 14 5 25 10 25 6 0 10 -5 10 -12 0 -6 3 -9 6
-6 3 4 0 16 -6 28 -9 16 -9 25 0 35 7 8 9 18 6 24 -3 5 1 12 10 15 9 4 14 13
10 21 -3 8 -1 15 5 15 6 0 7 5 4 10 -8 14 3 30 21 30 8 0 14 -4 14 -10z m-112
-36 c-1 -9 -8 -19 -14 -21 -16 -5 -26 40 -11 49 16 10 30 -5 25 -28z m182 21
c0 -8 -2 -15 -4 -15 -2 0 -6 7 -10 15 -3 8 -1 15 4 15 6 0 10 -7 10 -15z m594
0 c-4 -8 -11 -15 -16 -15 -6 0 -5 6 2 15 7 8 14 15 16 15 2 0 1 -7 -2 -15z
m2123 -7 c-3 -8 -6 -5 -6 6 -1 11 2 17 5 13 3 -3 4 -12 1 -19z m-2027 -9 c0
-6 -4 -7 -10 -4 -5 3 -10 11 -10 16 0 6 5 7 10 4 6 -3 10 -11 10 -16z m170 11
c0 -5 -5 -10 -11 -10 -5 0 -7 5 -4 10 3 6 8 10 11 10 2 0 4 -4 4 -10z m935
-18 c-6 -7 -34 11 -29 19 3 5 11 3 19 -4 7 -6 12 -13 10 -15z m1165 18 c0 -5
-5 -10 -11 -10 -5 0 -7 5 -4 10 3 6 8 10 11 10 2 0 4 -4 4 -10z m380 -5 c0 -8
-4 -15 -10 -15 -5 0 -10 7 -10 15 0 8 5 15 10 15 6 0 10 -7 10 -15z m-4110
-10 c0 -8 -2 -15 -4 -15 -2 0 -6 7 -10 15 -3 8 -1 15 4 15 6 0 10 -7 10 -15z
m61 1 c-8 -10 -9 -16 -1 -21 5 -3 10 -11 10 -17 0 -6 -8 -3 -19 8 -20 21 -17
44 6 44 12 0 13 -3 4 -14z m2942 -1 c-3 -9 -8 -14 -10 -11 -3 3 -2 9 2 15 9
16 15 13 8 -4z m-2773 -5 c0 -5 -4 -10 -10 -10 -5 0 -10 5 -10 10 0 6 5 10 10
10 6 0 10 -4 10 -10z m234 -25 c-20 -30 -30 -32 -37 -4 -4 15 -2 19 9 15 8 -3
14 -1 14 4 0 6 7 10 15 10 14 0 13 -3 -1 -25z m406 15 c0 -5 -4 -10 -10 -10
-5 0 -10 5 -10 10 0 6 5 10 10 10 6 0 10 -4 10 -10z m1015 0 c3 -6 -1 -7 -9
-4 -18 7 -21 14 -7 14 6 0 13 -4 16 -10z m1765 0 c0 -5 -5 -10 -11 -10 -5 0
-7 5 -4 10 3 6 8 10 11 10 2 0 4 -4 4 -10z m140 0 c13 -8 13 -10 -2 -10 -9 0
-20 5 -23 10 -8 13 5 13 25 0z m-2419 -10 c5 0 9 -10 9 -22 -1 -23 -1 -23 -16
-3 -8 11 -20 19 -25 18 -5 -2 -9 2 -9 8 0 6 7 8 16 5 9 -3 20 -6 25 -6z m1366
4 c-3 -3 -12 -4 -19 -1 -8 3 -5 6 6 6 11 1 17 -2 13 -5z m-2392 -14 c3 -5 1
-10 -4 -10 -6 0 -11 5 -11 10 0 6 2 10 4 10 3 0 8 -4 11 -10z m63 -39 c-16 -5
-29 14 -22 34 6 16 8 15 20 -6 8 -15 9 -25 2 -28z m3053 26 c-10 -9 -11 -8 -5
6 3 10 9 15 12 12 3 -3 0 -11 -7 -18z m-3195 -14 c-10 -10 -19 5 -10 18 6 11
8 11 12 0 2 -7 1 -15 -2 -18z m304 12 c10 -12 10 -15 -4 -15 -9 0 -16 7 -16
15 0 8 2 15 4 15 2 0 9 -7 16 -15z m-545 -4 c3 -5 1 -12 -5 -16 -5 -3 -10 1
-10 9 0 18 6 21 15 7z m687 -13 c-7 -7 -12 -8 -12 -2 0 14 12 26 19 19 2 -3
-1 -11 -7 -17z m68 7 c-10 -12 -10 -19 -2 -27 15 -15 15 -28 2 -28 -5 0 -10 5
-10 12 0 6 -10 22 -22 35 l-21 23 32 0 c29 0 32 -2 21 -15z m70 -25 c-7 -13
-16 -16 -32 -12 l-23 7 23 3 c18 3 23 8 19 23 -4 16 -3 18 9 9 10 -9 11 -17 4
-30z m-675 20 c3 -5 1 -10 -4 -10 -6 0 -11 5 -11 10 0 6 2 10 4 10 3 0 8 -4
11 -10z m741 -17 c-8 -8 -36 5 -36 17 0 7 6 7 21 0 11 -7 18 -14 15 -17z
m2807 10 c-7 -2 -19 -2 -25 0 -7 3 -2 5 12 5 14 0 19 -2 13 -5z m-3243 -13 c0
-5 -4 -10 -9 -10 -6 0 -13 5 -16 10 -3 6 1 10 9 10 9 0 16 -4 16 -10z m-483
-22 c-3 -8 -6 -5 -6 6 -1 11 2 17 5 13 3 -3 4 -12 1 -19z m303 18 c0 -2 -8
-10 -17 -17 -16 -13 -17 -12 -4 4 13 16 21 21 21 13z m296 -34 c-4 -3 -11 0
-16 8 -15 24 -11 33 6 15 9 -9 13 -19 10 -23z m151 12 c-9 -9 -28 6 -21 18 4
6 10 6 17 -1 6 -6 8 -13 4 -17z m-657 -21 c0 -21 2 -24 15 -13 8 7 15 18 15
26 0 7 4 16 10 19 6 4 7 -2 1 -17 -5 -13 -5 -33 0 -47 11 -28 5 -38 -14 -23
-8 7 -17 9 -20 5 -4 -3 -7 -1 -7 6 0 7 -6 11 -13 8 -7 -2 -18 7 -24 20 -12 25
-12 25 7 8 19 -17 20 -17 20 3 0 12 -5 22 -11 22 -5 0 -7 5 -4 10 10 17 25 1
25 -27z m80 -5 c0 -14 5 -18 15 -14 9 3 15 0 15 -9 0 -8 -2 -15 -4 -15 -2 0
-11 -3 -20 -6 -11 -4 -16 0 -16 14 0 11 -5 22 -11 24 -5 2 -7 11 -4 21 9 22
25 12 25 -15z m25 22 c3 -5 1 -10 -4 -10 -6 0 -11 5 -11 10 0 6 2 10 4 10 3 0
8 -4 11 -10z m-225 -25 c0 -8 -4 -15 -10 -15 -5 0 -7 7 -4 15 4 8 8 15 10 15
2 0 4 -7 4 -15z m54 -4 c4 -5 0 -11 -6 -14 -10 -3 -10 -7 -1 -19 7 -8 9 -18 5
-22 -4 -4 -2 -7 3 -6 27 6 37 0 26 -14 -13 -16 -6 -42 15 -50 8 -3 14 -19 14
-36 0 -18 6 -33 15 -37 14 -5 14 -8 -1 -24 -19 -21 -12 -49 12 -49 14 0 14 3
4 15 -15 18 -13 21 23 30 29 8 38 -8 12 -23 -19 -10 -30 -71 -16 -91 12 -18
33 -4 27 17 -5 13 1 17 27 18 17 1 25 0 15 -3 -9 -2 -21 -17 -28 -33 -7 -16
-18 -35 -26 -41 -19 -15 -18 -39 2 -39 8 0 13 4 10 9 -3 4 1 17 9 27 8 10 15
27 15 37 0 9 5 17 11 17 6 0 8 -8 4 -19 -3 -10 1 -23 9 -30 17 -14 28 -1 16
19 -10 16 -1 79 14 100 7 10 4 10 -9 -2 -23 -19 -65 -20 -65 -2 0 18 27 37 35
24 3 -6 11 -8 16 -5 13 9 11 25 -4 25 -9 0 -12 11 -9 35 3 22 10 35 19 35 8 0
13 -8 11 -17 -1 -10 1 -24 6 -32 14 -22 25 -81 15 -81 -5 0 -9 -9 -9 -21 0
-15 4 -19 16 -15 9 3 20 6 26 6 6 0 7 5 2 13 -15 21 -10 49 11 61 11 6 23 16
27 21 5 6 8 6 8 -2 0 -6 -5 -15 -11 -19 -8 -4 -1 -13 17 -23 23 -12 25 -16 11
-19 -9 -2 -15 -8 -12 -13 3 -5 -1 -6 -9 -3 -12 5 -16 0 -16 -20 0 -17 -5 -26
-16 -26 -9 0 -12 5 -8 13 5 8 2 8 -9 -2 -9 -7 -17 -22 -17 -32 0 -10 -11 -26
-25 -35 -24 -16 -27 -16 -45 1 -18 17 -20 17 -20 1 0 -9 -7 -28 -16 -42 l-17
-25 -20 41 c-24 46 -37 51 -37 15 0 -14 4 -25 9 -25 5 0 11 -9 14 -20 8 -32
55 -27 69 8 10 23 12 24 16 8 4 -18 11 -29 40 -61 17 -19 15 -25 -8 -25 -24 0
-26 -15 -4 -24 13 -5 14 -9 4 -22 -10 -11 -15 -12 -20 -3 -6 8 -9 8 -15 -1 -4
-6 -2 -17 4 -23 6 -6 11 -19 11 -29 0 -12 5 -15 16 -11 10 3 12 9 6 15 -15 15
-3 45 24 57 14 6 22 16 19 21 -3 6 1 10 9 10 25 0 19 -26 -9 -38 -40 -19 -29
-46 14 -35 15 4 20 11 16 22 -5 13 -4 14 6 4 17 -17 30 -16 23 1 -3 7 6 21 20
30 15 9 26 13 26 8 0 -5 14 -7 30 -4 23 3 28 7 20 17 -5 6 -7 15 -3 18 9 9 55
8 70 -1 16 -10 5 -52 -13 -52 -7 0 -16 -11 -20 -24 -9 -37 -31 -41 -26 -5 5
31 1 34 -28 19 -13 -7 -21 -7 -25 0 -4 6 -11 7 -17 4 -6 -4 -5 -10 3 -15 11
-7 11 -9 -3 -9 -11 0 -15 -6 -11 -20 7 -26 -36 -46 -53 -24 -16 20 -33 17 -31
-6 1 -12 8 -20 18 -20 16 0 16 -3 2 -30 -8 -17 -19 -27 -25 -24 -6 4 -5 -2 1
-15 10 -17 9 -21 -3 -21 -8 0 -17 9 -21 19 -4 13 -12 17 -26 14 -13 -4 -30 4
-51 23 -19 18 -32 25 -35 17 -5 -13 -70 -6 -90 9 -7 6 -19 6 -31 -1 -18 -10
-19 -7 -15 45 2 31 -1 62 -7 69 -6 7 -8 20 -4 29 7 19 1 20 -28 4 -35 -21 -58
-51 -52 -72 4 -13 2 -16 -6 -11 -6 4 -10 15 -7 26 4 15 2 16 -13 6 -10 -6 -22
-20 -25 -32 -6 -20 -6 -20 -14 0 -6 14 -4 21 5 23 19 5 18 32 -1 32 -8 0 -15
7 -15 17 0 15 1 15 19 -1 17 -16 20 -16 52 1 19 10 36 19 38 21 3 1 -1 8 -8
15 -10 9 -15 8 -25 -5 -10 -13 -15 -15 -24 -6 -15 15 -16 32 -2 23 6 -3 10 3
10 14 0 14 -5 19 -15 15 -8 -4 -15 -1 -15 5 0 10 14 15 34 12 5 -1 4 5 -4 13
-8 11 -9 16 -1 16 6 0 11 6 11 14 0 8 -9 12 -26 10 -20 -2 -24 1 -20 13 4 9 1
22 -5 29 -9 11 -8 14 1 14 7 0 10 7 7 15 -4 8 -1 17 5 21 6 4 8 3 4 -4 -3 -5
0 -13 6 -15 10 -4 10 -8 -1 -15 -12 -9 -12 -12 1 -26 14 -14 16 -13 21 6 5 18
8 19 22 8 9 -8 13 -20 10 -29 -12 -29 -10 -104 2 -108 8 -3 11 11 10 44 -1 37
2 47 13 45 8 -2 23 -4 32 -5 11 -1 18 -9 18 -21 0 -18 -1 -18 -18 -3 -10 10
-22 17 -25 17 -10 0 -8 -42 2 -58 7 -11 9 -10 15 3 10 27 26 7 19 -25 -4 -23
-2 -30 11 -30 9 0 15 5 14 11 -2 6 3 14 10 16 6 3 12 0 12 -5 0 -14 51 -2 57
14 2 7 -6 28 -20 46 -32 44 -40 68 -23 68 8 0 16 -6 19 -12 2 -7 8 4 12 24 4
20 14 39 22 42 8 3 11 10 8 16 -9 14 -25 12 -25 -3 0 -15 -76 -44 -87 -34 -4
4 2 14 13 22 18 15 17 15 -11 13 -18 -2 -31 -9 -31 -18 -1 -8 -2 -25 -3 -37 0
-13 -5 -23 -10 -23 -13 0 -21 39 -10 46 6 3 5 11 -2 20 -6 7 -8 21 -5 31 6 14
4 14 -15 -3 l-22 -19 7 25 c19 65 19 71 0 63 -16 -6 -17 -4 -7 8 8 10 23 14
43 11 33 -5 36 -1 18 27 -7 11 -19 17 -32 15 -12 -3 -15 -2 -8 2 19 9 15 45
-5 37 -11 -4 -14 -3 -9 5 4 7 10 12 14 12 12 0 87 -101 84 -112 -2 -7 3 -6 13
2 21 18 29 7 13 -20 -10 -16 -21 -20 -46 -18 -25 3 -31 1 -27 -10 3 -7 5 -17
5 -22 0 -5 16 -7 35 -6 20 2 38 0 41 -5 13 -22 29 5 28 49 -1 66 -18 105 -44
97 -14 -5 -20 -2 -20 9 0 10 9 16 21 16 18 0 19 2 9 15 -14 17 -35 21 -25 5 3
-6 -1 -7 -9 -4 -9 3 -16 1 -16 -5 0 -6 -5 -11 -11 -11 -5 0 -7 5 -4 10 4 6 4
19 0 28 -6 15 -8 15 -15 -3 -6 -16 -8 -12 -7 14 0 34 0 34 18 13 14 -18 19
-19 28 -8 7 8 8 16 3 18 -12 4 4 48 17 48 5 0 12 -4 15 -9z m-174 -32 c0 -6 9
-8 20 -4 28 9 43 -3 26 -21 -12 -12 -20 -12 -43 -2 -37 16 -36 15 -28 27 8 14
25 14 25 0z m370 -19 c0 -5 -2 -10 -4 -10 -3 0 -8 5 -11 10 -3 6 -1 10 4 10 6
0 11 -4 11 -10z m597 -8 c-9 -2 -15 -8 -12 -13 4 -5 1 -17 -4 -26 -9 -16 -10
-15 -11 8 0 29 18 51 34 41 7 -4 4 -8 -7 -10z m57 -21 c-10 -10 -22 -17 -26
-14 -11 6 14 32 31 33 11 0 9 -5 -5 -19z m-1049 -11 c3 -5 1 -10 -4 -10 -6 0
-11 5 -11 10 0 6 2 10 4 10 3 0 8 -4 11 -10z m273 3 c-15 -4 -15 -6 3 -24 26
-26 42 -24 34 4 -4 17 -2 16 10 -6 13 -22 14 -31 4 -43 -6 -8 -8 -14 -3 -14 5
0 1 -5 -9 -11 -21 -12 -46 -1 -26 12 11 6 8 14 -14 37 -33 34 -35 52 -4 51 15
-1 17 -3 5 -6z m297 -32 c-6 -5 -25 10 -25 20 0 5 6 4 14 -3 8 -7 12 -15 11
-17z m-525 -6 c0 -8 -4 -15 -10 -15 -5 0 -10 7 -10 15 0 8 5 15 10 15 6 0 10
-7 10 -15z m933 -20 c-3 -9 -8 -14 -10 -11 -3 3 -2 9 2 15 9 16 15 13 8 -4z
m-1043 -26 c0 -5 -10 -9 -21 -9 -18 0 -19 2 -9 15 12 15 30 12 30 -6z m135 12
c-6 -4 -23 -11 -40 -14 l-30 -6 30 14 c35 16 54 19 40 6z m622 -11 c-3 -11 -1
-18 4 -14 5 3 9 0 9 -5 0 -6 -5 -11 -10 -11 -7 0 -7 -6 0 -20 9 -17 17 -19 52
-13 l42 6 -22 -23 c-12 -13 -22 -30 -22 -37 0 -17 -44 -17 -57 0 -15 19 -22
57 -11 57 6 0 3 11 -5 24 -14 21 -14 25 1 40 21 21 25 20 19 -4z m199 -2 c35
-29 54 -48 54 -56 0 -12 -58 -34 -81 -30 -12 2 -23 11 -25 21 -1 9 2 15 7 11
5 -3 9 1 9 8 1 8 6 6 15 -6 16 -21 16 -20 15 32 0 4 -8 7 -18 8 -30 2 -33 4
-27 14 8 14 33 13 51 -2z m-141 -8 c3 -6 -1 -7 -9 -4 -18 7 -21 14 -7 14 6 0
13 -4 16 -10z m-401 -15 c-10 -7 -22 -11 -27 -8 -12 7 0 19 23 20 21 2 21 1 4
-12z m-364 -17 c0 -12 -1 -19 -3 -17 -1 2 -9 12 -16 22 -12 14 -11 17 3 17 10
0 16 -8 16 -22z m1012 -8 c13 -23 14 -30 4 -30 -16 0 -48 45 -39 54 11 11 18
6 35 -24z m-946 -5 c1 -8 -2 -15 -7 -15 -5 0 -9 10 -9 22 0 23 12 17 16 -7z
m596 -25 c-1 -7 4 -23 12 -35 14 -22 14 -24 -11 -40 l-26 -17 6 31 c6 27 3 33
-18 43 -28 12 -35 31 -8 21 12 -5 15 -2 10 10 -5 13 -2 14 16 7 12 -4 21 -14
19 -20z m-635 -2 c-3 -8 -6 -5 -6 6 -1 11 2 17 5 13 3 -3 4 -12 1 -19z m548 3
c3 -5 1 -12 -5 -16 -5 -3 -10 1 -10 9 0 18 6 21 15 7z m380 -11 c5 8 16 1 36
-21 38 -43 37 -58 -2 -25 -39 33 -73 35 -66 4 3 -13 1 -32 -3 -43 -8 -18 -9
-18 -10 5 l-2 25 -7 -25 c-6 -22 -12 -25 -49 -23 -36 2 -42 -1 -42 -18 0 -11
5 -17 10 -14 6 3 10 1 10 -6 0 -10 3 -10 12 -1 19 19 38 14 38 -9 0 -14 -5
-19 -14 -16 -8 3 -17 -1 -20 -9 -3 -8 -13 -14 -22 -14 -10 0 -14 -5 -10 -15 6
-17 -9 -21 -19 -4 -4 5 0 18 9 27 14 16 13 19 -4 30 -27 16 -25 48 3 57 12 4
25 7 30 6 4 -1 10 12 13 29 6 29 34 43 34 18 1 -7 6 -3 13 10 7 12 16 20 20
16 3 -4 10 1 13 10 5 13 9 14 14 6 6 -9 9 -9 15 0z m-967 -61 c-7 -5 -8 -9 -3
-9 6 -1 -1 -6 -14 -11 -18 -7 -27 -6 -33 3 -11 19 -10 30 3 22 8 -5 10 2 6 21
l-5 29 19 -25 c18 -23 19 -23 19 -3 0 32 15 39 18 9 2 -16 -2 -32 -10 -36z
m852 41 c0 -5 -2 -10 -4 -10 -3 0 -8 5 -11 10 -3 6 -1 10 4 10 6 0 11 -4 11
-10z m-225 -11 c4 -6 4 -13 0 -17 -4 -4 -10 -1 -12 5 -3 9 -14 11 -30 7 -18
-5 -24 -3 -19 5 9 14 53 15 61 0z m-30 -70 c4 -24 12 -39 21 -39 22 0 17 -16
-11 -34 -34 -22 -42 -20 -19 5 14 16 15 23 7 26 -7 3 -13 20 -13 39 0 23 -4
33 -11 29 -6 -4 -8 -12 -6 -19 6 -16 -38 -36 -55 -25 -10 7 -7 11 10 15 19 5
20 9 10 22 -8 9 -8 13 -2 9 7 -4 17 0 24 8 18 22 38 7 45 -36z m47 8 c11 -4
17 -15 16 -31 -3 -30 -26 -23 -39 11 -11 30 -12 53 -1 37 4 -6 15 -13 24 -17z
m73 -24 c6 -16 27 -46 48 -65 20 -19 37 -43 37 -52 0 -18 15 -22 25 -6 3 5 13
6 23 3 15 -6 15 -5 3 10 -12 15 -11 17 8 17 11 0 21 -6 21 -14 0 -17 -25 -38
-34 -29 -4 4 -4 0 0 -10 3 -10 1 -17 -5 -17 -6 0 -11 -5 -11 -11 0 -6 9 -9 20
-6 22 6 49 -18 28 -26 -7 -2 -10 -8 -6 -12 4 -4 13 -3 21 3 8 7 18 7 27 2 8
-6 11 -10 5 -10 -5 0 -3 -5 5 -11 13 -9 12 -10 -2 -5 -10 3 -20 1 -24 -5 -3
-6 4 -13 15 -16 22 -6 26 -37 6 -39 -26 -2 -43 -17 -38 -31 4 -11 2 -14 -5 -9
-7 4 -12 2 -12 -3 0 -6 -10 -11 -22 -10 -13 0 -18 3 -11 6 8 3 3 13 -14 29
-14 13 -29 24 -33 24 -4 0 -7 7 -6 16 0 9 -13 25 -30 34 -33 19 -84 23 -84 7
0 -6 -3 -7 -6 -4 -13 12 18 38 38 31 17 -5 19 -2 13 15 -4 13 -2 21 5 21 8 0
8 6 -1 21 -7 14 -8 24 -1 31 13 13 32 2 32 -17 0 -9 6 -12 15 -9 22 9 18 -3
-10 -33 l-24 -27 26 -17 c25 -17 27 -17 39 -1 7 9 10 21 7 25 -3 5 -9 3 -14
-4 -6 -11 -11 -11 -20 -2 -19 19 7 46 32 32 25 -13 24 3 0 25 -11 10 -17 24
-14 32 3 9 -2 14 -15 14 -16 0 -19 5 -15 23 l5 22 -19 -21 c-20 -23 -59 -42
-47 -22 5 7 2 9 -9 5 -9 -3 -18 1 -21 10 -4 11 -10 12 -19 5 -8 -7 -16 -6 -24
3 -7 8 -9 16 -4 20 5 3 13 0 17 -6 5 -9 11 -7 20 5 11 16 14 16 29 -8 10 -14
25 -26 34 -26 13 1 11 4 -6 19 -13 11 -23 30 -23 43 0 12 -4 30 -9 38 -6 8 -7
18 -4 23 9 15 28 1 38 -30z m255 17 c0 -5 -7 -10 -16 -10 -8 0 -12 5 -9 10 3
6 10 10 16 10 5 0 9 -4 9 -10z m-937 -63 c-7 -11 -23 12 -23 33 1 12 4 11 15
-4 8 -10 12 -23 8 -29z m520 23 c3 -11 1 -20 -4 -20 -5 0 -9 9 -9 20 0 11 2
20 4 20 2 0 6 -9 9 -20z m417 -27 c0 -7 -5 -13 -11 -13 -6 0 -9 7 -6 15 4 8 2
17 -3 20 -6 4 -10 11 -10 18 0 15 29 -25 30 -40z m-45 27 c-3 -5 -12 -10 -18
-10 -7 0 -6 4 3 10 19 12 23 12 15 0z m-420 -27 c2 -10 4 -21 4 -25 1 -5 10
-8 20 -8 18 0 35 -23 25 -33 -9 -8 -54 17 -54 31 0 18 -9 15 -31 -10 l-19 -23
2 30 c2 20 8 29 18 27 11 -2 10 2 -3 12 -18 14 -17 15 5 18 28 5 29 4 33 -19z
m-267 -8 c-3 -3 -9 2 -12 12 -6 14 -5 15 5 6 7 -7 10 -15 7 -18z m777 5 c3 -5
1 -10 -4 -10 -6 0 -11 5 -11 10 0 6 2 10 4 10 3 0 8 -4 11 -10z m-81 -36 c9
-3 13 -10 10 -15 -8 -14 -21 -11 -28 6 -6 17 -4 18 18 9z m-334 -25 c0 -11 -4
-18 -9 -15 -5 4 -11 1 -13 -6 -3 -9 -6 -9 -11 -1 -4 6 0 19 9 27 20 21 24 20
24 -5z m339 -43 c-3 -3 -11 5 -18 17 -13 21 -12 21 5 5 10 -10 16 -20 13 -22z
m71 -6 c-19 -12 -30 -12 -30 -1 0 10 31 20 40 14 2 -2 -2 -8 -10 -13z m68 8
c8 -10 5 -13 -13 -13 -14 0 -21 5 -18 13 3 6 9 12 13 12 4 0 12 -6 18 -12z
m-112 -29 c3 -6 1 -16 -5 -22 -8 -8 -11 -8 -11 1 0 7 -8 12 -17 12 -15 0 -16
2 -3 10 20 13 27 12 36 -1z m-806 -25 c0 -22 -26 -16 -27 5 -1 14 3 18 13 14
8 -3 14 -11 14 -19z m950 -5 c0 -6 -4 -7 -10 -4 -5 3 -10 11 -10 16 0 6 5 7
10 4 6 -3 10 -11 10 -16z m46 -13 c0 -14 -5 -21 -9 -17 -4 4 -5 15 -1 24 9 24
12 21 10 -7z m-540 -1 c-3 -9 1 -18 9 -21 20 -8 19 -34 0 -34 -8 0 -15 3 -16
8 0 4 -3 19 -5 35 -3 16 0 27 7 27 6 0 8 -7 5 -15z m410 4 c8 -14 -14 -29 -33
-22 -9 4 -11 0 -7 -11 3 -9 2 -16 -3 -16 -17 0 -13 48 5 53 28 8 31 7 38 -4z
m48 -47 c-22 -5 -31 7 -14 18 9 6 17 5 22 -3 4 -7 1 -13 -8 -15z m-1019 8 c-3
-5 -14 -10 -23 -10 -15 0 -15 2 -2 10 20 13 33 13 25 0z m695 -6 c0 -7 7 -19
15 -27 12 -13 12 -17 1 -26 -10 -9 -15 -8 -20 4 -3 8 -12 15 -20 15 -8 0 -17
8 -19 18 -3 12 -5 11 -6 -6 -1 -19 -5 -22 -23 -16 -13 3 -20 3 -16 -1 4 -4 3
-17 -2 -29 -9 -26 -3 -40 23 -49 9 -3 17 -11 17 -17 0 -15 -16 -12 -30 5 -7 9
-18 14 -24 12 -8 -3 -9 14 -2 63 l9 67 49 0 c31 -1 48 -5 48 -13z m-165 -4 c3
-5 1 -10 -4 -10 -6 0 -11 5 -11 10 0 6 2 10 4 10 3 0 8 -4 11 -10z m388 -31
c-5 -20 -4 -20 18 -9 23 12 23 12 7 -6 -21 -21 -45 -7 -35 20 9 23 16 19 10
-5z m-429 -4 c5 -14 9 -14 42 0 21 8 39 13 42 10 3 -2 -3 -7 -12 -11 -12 -5
-14 -10 -6 -19 8 -9 8 -15 0 -20 -6 -4 -9 -3 -8 2 2 4 -1 9 -7 11 -5 2 -13 -7
-17 -20 -4 -17 -6 -18 -7 -5 -1 17 -39 39 -53 30 -10 -5 -10 0 -2 21 8 20 20
20 28 1z m-354 -26 c0 -5 -4 -9 -8 -9 -5 0 -9 7 -9 15 0 8 4 12 9 9 4 -3 8 -9
8 -15z m43 14 c-7 -2 -19 -2 -25 0 -7 3 -2 5 12 5 14 0 19 -2 13 -5z m597 -57
c0 -4 -8 -5 -17 -2 -9 4 -20 1 -25 -6 -6 -10 -11 -9 -19 5 -9 15 -12 16 -25 2
-19 -19 -35 -20 -28 -1 7 18 45 28 59 16 15 -12 25 -3 25 24 1 19 2 19 15 -4
8 -14 14 -29 15 -34z m116 27 c-3 -8 -6 -19 -6 -24 0 -5 -3 -8 -7 -8 -21 3
-32 -3 -38 -21 -3 -11 -12 -20 -20 -20 -19 0 -7 38 17 51 12 7 18 18 15 28 -3
14 1 17 20 13 16 -3 22 -9 19 -19z m104 7 c-8 -5 -22 -9 -30 -9 -10 0 -8 3 5
9 27 12 43 12 25 0z m-771 -11 c26 -9 30 -14 20 -26 -7 -8 -8 -13 -3 -11 11 4
14 -5 13 -34 0 -20 -2 -19 -16 10 -12 23 -24 32 -42 33 -18 1 -21 3 -8 6 14 4
16 8 6 19 -14 17 -11 17 30 3z m231 7 c0 -2 -7 -7 -16 -10 -8 -3 -12 -2 -9 4
6 10 25 14 25 6z m594 -10 c-6 -16 -34 -29 -43 -20 -6 6 27 34 41 34 4 0 5 -6
2 -14z m-700 -20 c3 8 11 12 17 9 15 -10 -19 -45 -36 -38 -8 2 -11 11 -8 19 3
8 0 14 -6 14 -6 0 -11 6 -11 13 1 6 9 2 19 -10 16 -19 20 -20 25 -7z m626 -17
c0 -11 -4 -18 -10 -14 -5 3 -7 12 -3 20 7 21 13 19 13 -6z m184 11 c9 7 20 10
23 6 10 -9 -18 -27 -36 -23 -8 1 -16 9 -18 17 -4 13 -3 13 5 1 9 -12 13 -13
26 -1z m-743 -23 c-1 -4 -1 -15 -1 -24 0 -15 -2 -14 -14 2 -8 11 -12 23 -9 28
6 9 25 5 24 -6z m49 -7 c0 -5 -5 -10 -11 -10 -5 0 -7 5 -4 10 3 6 8 10 11 10
2 0 4 -4 4 -10z m316 -5 c-24 -18 -47 -19 -40 -2 2 7 17 14 32 15 26 1 26 1 8
-13z m-568 -51 c-2 -1 -11 4 -22 11 -12 9 -16 20 -12 31 6 15 9 14 22 -11 8
-15 13 -29 12 -31z m392 52 c0 -11 -19 -15 -25 -6 -3 5 1 10 9 10 9 0 16 -2
16 -4z m1705 -15 c3 -5 1 -12 -5 -16 -5 -3 -10 1 -10 9 0 18 6 21 15 7z
m-2015 -5 c0 -11 -19 -15 -25 -6 -3 5 1 10 9 10 9 0 16 -2 16 -4z m340 -20 c0
-8 -6 -18 -13 -25 -11 -8 -13 -5 -9 19 4 29 22 33 22 6z m3465 14 c3 -5 1 -10
-4 -10 -6 0 -11 5 -11 10 0 6 2 10 4 10 3 0 8 -4 11 -10z m-3185 -7 c0 -5 -11
-8 -24 -8 -13 0 -22 3 -19 8 2 4 13 7 24 7 10 0 19 -3 19 -7z m940 -3 c0 -5
-4 -10 -10 -10 -5 0 -10 5 -10 10 0 6 5 10 10 10 6 0 10 -4 10 -10z m1370 -16
c0 -8 -5 -12 -10 -9 -6 4 -8 11 -5 16 9 14 15 11 15 -7z m179 7 c9 -6 10 -11
2 -15 -13 -8 -31 1 -31 15 0 11 11 11 29 0z m271 -1 c0 -5 -5 -10 -11 -10 -5
0 -7 5 -4 10 3 6 8 10 11 10 2 0 4 -4 4 -10z m-3543 -22 c-3 -8 -6 -5 -6 6 -1
11 2 17 5 13 3 -3 4 -12 1 -19z m1563 18 c0 -3 -4 -8 -10 -11 -5 -3 -10 -1
-10 4 0 6 5 11 10 11 6 0 10 -2 10 -4z m2500 -6 c0 -5 -4 -10 -10 -10 -5 0
-10 5 -10 10 0 6 5 10 10 10 6 0 10 -4 10 -10z m-2979 -33 c-8 -8 -11 -7 -11
4 0 9 3 19 7 23 4 4 9 2 11 -4 3 -7 -1 -17 -7 -23z m568 9 c7 -8 8 -17 3 -20
-6 -3 -12 3 -15 14 -6 24 -4 25 12 6z m1836 4 c3 -5 1 -10 -4 -10 -6 0 -11 5
-11 10 0 6 2 10 4 10 3 0 8 -4 11 -10z m-315 -10 c0 -5 -2 -10 -4 -10 -3 0 -8
5 -11 10 -3 6 -1 10 4 10 6 0 11 -4 11 -10z m410 0 c0 -5 -2 -10 -4 -10 -3 0
-8 5 -11 10 -3 6 -1 10 4 10 6 0 11 -4 11 -10z m-323 -20 c3 -10 2 -11 -4 -4
-4 7 -17 14 -28 17 -16 5 -15 5 4 4 14 -1 26 -9 28 -17z m663 10 c0 -5 -5 -10
-11 -10 -5 0 -7 5 -4 10 3 6 8 10 11 10 2 0 4 -4 4 -10z"/>
<path d="M1140 2980 c-17 -11 -8 -23 23 -27 12 -2 17 0 11 4 -6 5 -13 13 -15
20 -3 8 -9 9 -19 3z"/>
<path d="M955 2960 c-13 -14 -25 -18 -39 -14 -17 6 -19 4 -9 -7 6 -8 13 -18
15 -24 4 -14 20 -8 39 15 9 11 19 16 23 13 3 -3 -2 -12 -12 -19 -16 -12 -15
-13 5 -14 12 0 28 -3 36 -6 23 -8 11 29 -17 55 l-23 21 -18 -20z"/>
<path d="M1120 2940 c0 -5 5 -10 11 -10 5 0 7 5 4 10 -3 6 -8 10 -11 10 -2 0
-4 -4 -4 -10z"/>
<path d="M931 2891 c-8 -6 -9 -11 -3 -15 6 -3 14 -1 17 5 9 14 2 20 -14 10z"/>
<path d="M960 2860 c0 -6 -8 -10 -17 -8 -14 2 -18 -4 -18 -31 0 -36 20 -66 36
-55 6 3 8 12 5 20 -3 8 -1 14 5 14 6 0 8 9 4 19 -3 11 -1 22 5 26 15 9 12 25
-5 25 -8 0 -15 -5 -15 -10z"/>
<path d="M585 2740 c3 -5 11 -10 16 -10 6 0 7 5 4 10 -3 6 -11 10 -16 10 -6 0
-7 -4 -4 -10z"/>
<path d="M870 2611 c0 -6 5 -13 10 -16 6 -3 10 1 10 9 0 9 -4 16 -10 16 -5 0
-10 -4 -10 -9z"/>
<path d="M590 2460 c0 -5 7 -10 16 -10 8 0 12 5 9 10 -3 6 -10 10 -16 10 -5 0
-9 -4 -9 -10z"/>
<path d="M795 2449 c-17 -18 -20 -18 -23 -5 -2 9 -9 16 -16 16 -25 0 -27 -15
-4 -32 21 -15 22 -19 9 -40 -10 -18 -10 -20 0 -10 19 18 29 15 29 -8 0 -11 -7
-20 -16 -20 -9 0 -12 -5 -8 -11 4 -7 1 -10 -7 -7 -9 3 -14 18 -13 39 1 68 -33
69 -72 2 -19 -35 -11 -60 10 -31 7 10 16 15 19 11 4 -3 7 -1 7 6 0 7 11 -1 25
-17 14 -17 25 -35 25 -42 0 -7 8 -10 19 -7 23 6 54 -11 45 -25 -8 -13 16 -29
31 -20 10 7 16 8 36 11 22 2 -3 21 -29 21 -15 0 -38 9 -50 19 -23 17 -23 19
-7 35 13 12 16 27 12 52 -5 29 -3 35 8 30 9 -3 15 1 15 9 0 9 -6 12 -15 9 -18
-7 -20 7 -3 24 7 7 8 12 3 11 -6 0 -19 -9 -30 -20z"/>
<path d="M655 2420 c-15 -17 -16 -20 -3 -20 9 0 18 9 21 20 3 11 4 20 3 20 -2
0 -11 -9 -21 -20z"/>
<path d="M660 2310 c-13 -8 -12 -10 3 -10 9 0 17 5 17 10 0 12 -1 12 -20 0z"/>
<path d="M731 2304 c0 -11 3 -14 6 -6 3 7 2 16 -1 19 -3 4 -6 -2 -5 -13z"/>
<path d="M1160 2704 c0 -8 5 -12 10 -9 6 4 8 11 5 16 -9 14 -15 11 -15 -7z"/>
<path d="M1376 2734 c-8 -21 -4 -25 14 -14 11 7 12 12 4 20 -8 8 -13 7 -18 -6z"/>
<path d="M1320 2622 c0 -5 7 -16 16 -23 14 -12 16 -11 13 5 -4 20 -29 35 -29
18z"/>
<path d="M1151 2554 c0 -11 3 -14 6 -6 3 7 2 16 -1 19 -3 4 -6 -2 -5 -13z"/>
<path d="M1170 2439 c0 -5 5 -7 10 -4 6 3 10 8 10 11 0 2 -4 4 -10 4 -5 0 -10
-5 -10 -11z"/>
<path d="M1265 2420 c3 -5 8 -10 11 -10 2 0 4 5 4 10 0 6 -5 10 -11 10 -5 0
-7 -4 -4 -10z"/>
<path d="M1270 2365 c-11 -13 -10 -18 6 -30 23 -18 31 -18 40 -4 3 6 -2 20
-13 31 -18 17 -21 18 -33 3z"/>
<path d="M1268 2296 c7 -29 21 -36 49 -23 21 9 22 11 5 22 -9 7 -27 14 -38 17
-18 5 -21 2 -16 -16z"/>
<path d="M1320 2310 c0 -5 5 -10 10 -10 6 0 10 5 10 10 0 6 -4 10 -10 10 -5 0
-10 -4 -10 -10z"/>
<path d="M1996 2912 c-4 -3 -44 -7 -89 -9 -116 -3 -117 -3 -117 -19 0 -8 -4
-14 -10 -14 -5 0 -10 4 -10 10 0 5 -7 7 -15 4 -8 -4 -15 -17 -15 -30 0 -28 31
-44 91 -49 20 -1 41 -5 45 -7 17 -10 154 -7 154 2 0 6 9 10 21 10 11 0 17 -4
14 -10 -3 -5 3 -10 14 -10 15 0 19 5 15 18 -4 12 0 10 13 -6 19 -23 20 -23
243 -21 186 2 228 5 243 18 16 13 17 13 12 -2 -6 -15 10 -16 174 -16 157 0
183 2 198 17 15 15 16 15 11 1 -6 -14 10 -17 125 -23 73 -4 205 -6 295 -6 159
2 162 2 163 23 l0 22 11 -22 c8 -17 20 -23 42 -22 17 0 59 -3 93 -7 86 -9 117
0 110 31 -2 14 0 25 4 25 5 0 9 -14 9 -30 l0 -30 218 0 c119 0 224 0 232 -1
31 -2 237 22 290 34 30 6 66 20 79 29 24 17 21 38 -5 38 -8 0 -14 4 -14 10 0
10 -64 30 -101 31 -13 0 -57 2 -96 5 -53 4 -73 2 -73 -6 0 -8 -6 -9 -17 -5
-33 14 -345 16 -362 2 -9 -7 -12 -8 -8 -1 9 15 -802 17 -820 3 -7 -7 -13 -6
-18 1 -3 5 -29 10 -56 10 -31 0 -48 -4 -44 -10 7 -11 -8 -14 -18 -3 -14 13
-57 11 -65 -4 -8 -14 -10 -14 -15 0 -5 13 -27 16 -131 16 -70 -1 -129 -5 -132
-10 -3 -6 -12 -5 -21 3 -12 10 -91 13 -338 15 -177 1 -326 -1 -329 -5z m831
-47 c-23 -22 -33 -18 -12 5 10 11 20 18 23 16 2 -3 -3 -12 -11 -21z m-615 -7
c-7 -7 -12 -8 -12 -2 0 14 12 26 19 19 2 -3 -1 -11 -7 -17z m1655 0 c-3 -8 -6
-5 -6 6 -1 11 2 17 5 13 3 -3 4 -12 1 -19z m-1617 -4 c0 -8 -4 -12 -10 -9 -5
3 -10 10 -10 16 0 5 5 9 10 9 6 0 10 -7 10 -16z m777 10 c-3 -3 -12 -4 -19 -1
-8 3 -5 6 6 6 11 1 17 -2 13 -5z m1070 -36 c-3 -8 -6 -5 -6 6 -1 11 2 17 5 13
3 -3 4 -12 1 -19z m133 6 c0 -8 -4 -12 -10 -9 -5 3 -10 10 -10 16 0 5 5 9 10
9 6 0 10 -7 10 -16z m-1485 -4 c3 -5 1 -10 -4 -10 -6 0 -11 5 -11 10 0 6 2 10
4 10 3 0 8 -4 11 -10z m45 -20 c0 -5 -2 -10 -4 -10 -3 0 -8 5 -11 10 -3 6 -1
10 4 10 6 0 11 -4 11 -10z m575 0 c3 -5 1 -10 -4 -10 -6 0 -11 5 -11 10 0 6 2
10 4 10 3 0 8 -4 11 -10z"/>
<path d="M1745 2670 c-59 -6 -121 -30 -99 -37 7 -2 10 -12 7 -22 -5 -18 20
-32 80 -45 21 -5 27 -3 27 11 0 15 1 16 13 0 9 -12 36 -18 110 -22 53 -4 97
-3 97 2 0 4 11 8 25 8 14 0 25 -3 25 -6 0 -11 123 -9 137 2 9 9 13 8 13 0 0
-16 212 -15 228 1 9 9 12 9 12 -1 0 -9 37 -12 158 -12 86 -1 277 -3 425 -5
167 -3 281 -1 304 5 30 9 39 8 45 -4 7 -11 46 -14 213 -13 143 1 205 4 205 12
0 6 4 5 9 -3 12 -19 635 -10 672 10 13 7 36 13 50 14 26 1 79 30 79 43 -1 22
-33 42 -85 51 -85 16 -115 14 -115 -6 0 -15 -2 -14 -14 3 -14 18 -30 19 -434
19 -340 0 -422 -3 -435 -14 -11 -9 -17 -10 -17 -2 0 15 -73 14 -89 -1 -9 -9
-12 -9 -7 -1 4 8 -7 11 -38 11 -38 0 -43 -2 -39 -19 3 -10 9 -16 14 -13 5 3 9
-2 9 -10 0 -25 -14 -19 -33 14 l-18 30 -140 0 c-104 0 -139 -3 -139 -12 0 -10
-2 -10 -9 0 -5 8 -25 12 -52 11 -24 0 -124 2 -221 5 -166 6 -178 5 -178 -11 0
-15 -2 -16 -10 -3 -8 13 -60 15 -367 16 -197 0 -385 -2 -418 -6z m1129 -27
c-5 -5 -12 -12 -16 -18 -4 -6 -8 -2 -8 8 0 9 7 17 17 17 9 0 12 -3 7 -7z
m1185 -15 c-5 -10 -11 -18 -13 -18 -2 0 -6 8 -8 18 -4 12 1 18 13 18 14 0 15
-4 8 -18z m-1729 -8 c0 -5 -4 -10 -10 -10 -5 0 -10 5 -10 10 0 6 5 10 10 10 6
0 10 -4 10 -10z m-303 -32 c-3 -8 -6 -5 -6 6 -1 11 2 17 5 13 3 -3 4 -12 1
-19z m768 12 c-3 -5 -12 -10 -18 -10 -7 0 -6 4 3 10 19 12 23 12 15 0z m1690
0 c-3 -5 -23 -9 -43 -9 l-37 2 35 7 c52 11 52 11 45 0z m-1554 -11 c11 -5 17
-14 14 -20 -9 -14 -19 -11 -33 11 -14 23 -10 25 19 9z m-284 -25 c-9 -9 -28 6
-21 18 4 6 10 6 17 -1 6 -6 8 -13 4 -17z m1073 -4 c0 -5 -2 -10 -4 -10 -3 0
-8 5 -11 10 -3 6 -1 10 4 10 6 0 11 -4 11 -10z m505 -10 c3 -5 -1 -10 -9 -10
-9 0 -16 5 -16 10 0 6 4 10 9 10 6 0 13 -4 16 -10z"/>
<path d="M1970 2440 c-8 -5 -23 -7 -33 -4 -10 3 -24 1 -30 -5 -8 -6 -18 -6
-27 -1 -23 15 -48 12 -68 -8 -10 -10 -23 -17 -28 -15 -15 5 -47 -34 -39 -47 3
-5 11 -8 16 -5 5 4 9 2 9 -3 0 -21 223 -38 248 -19 9 7 16 7 20 1 11 -16 75
-18 622 -19 338 0 528 -4 532 -10 5 -7 14 -6 28 3 11 7 20 8 20 3 0 -5 60 -9
133 -9 72 0 248 -3 390 -8 247 -7 258 -6 272 12 13 18 14 18 15 1 0 -17 10
-18 138 -13 181 7 215 10 229 19 6 4 13 2 15 -5 4 -10 18 -10 69 1 35 7 73 15
84 16 11 2 37 10 58 19 80 33 11 88 -100 81 -35 -2 -61 0 -59 4 3 4 -38 8 -91
9 -82 2 -94 0 -89 -13 5 -13 3 -13 -17 -1 -18 11 -87 14 -355 14 -316 0 -335
-1 -353 -19 -14 -14 -19 -15 -19 -5 0 8 -8 17 -18 20 -26 9 -164 4 -184 -6
-11 -5 -18 -5 -18 1 0 5 -39 10 -90 10 -62 0 -90 -4 -90 -12 0 -8 -3 -9 -8 -1
-4 7 -60 11 -149 11 -114 1 -143 -2 -143 -12 0 -8 -9 -13 -19 -12 -16 1 -17 4
-9 15 9 11 -10 13 -113 14 -68 0 -261 2 -429 4 -189 3 -311 0 -320 -6z m70 -4
c0 -3 -4 -8 -10 -11 -5 -3 -10 -1 -10 4 0 6 5 11 10 11 6 0 10 -2 10 -4z m142
-38 c-7 -7 -12 -8 -12 -2 0 6 3 14 7 17 3 4 9 5 12 2 2 -3 -1 -11 -7 -17z
m-342 -2 c0 -3 -4 -8 -10 -11 -5 -3 -10 -1 -10 4 0 6 5 11 10 11 6 0 10 -2 10
-4z m1516 -29 c1 -9 -4 -17 -12 -17 -8 0 -14 9 -14 21 0 24 22 21 26 -4z
m1144 3 c0 -10 -26 -20 -34 -13 -14 14 -5 31 14 26 11 -3 20 -9 20 -13z m-547
3 c-7 -2 -19 -2 -25 0 -7 3 -2 5 12 5 14 0 19 -2 13 -5z m-863 -17 c0 -3 -4
-8 -10 -11 -5 -3 -10 -1 -10 4 0 6 5 11 10 11 6 0 10 -2 10 -4z m585 -15 c-3
-6 -16 -11 -28 -11 -21 0 -21 1 3 13 27 15 36 14 25 -2z m-1308 3 c-3 -3 -12
-4 -19 -1 -8 3 -5 6 6 6 11 1 17 -2 13 -5z"/>
<path d="M183 1950 c-48 -4 -79 -12 -92 -24 -12 -11 -27 -15 -40 -11 -38 12
-59 -69 -27 -104 21 -23 52 -28 59 -8 3 9 9 8 23 -5 17 -14 73 -16 582 -17
432 0 562 3 562 12 0 8 3 8 9 -2 7 -10 26 -12 82 -7 41 3 81 5 89 5 8 -1 42
-2 75 -4 33 -2 134 -6 225 -9 91 -4 188 -11 215 -17 28 -5 71 -14 97 -19 73
-14 138 -50 197 -107 30 -29 59 -54 65 -57 8 -3 7 -5 0 -5 -7 -1 -3 -25 12
-66 34 -94 28 -211 -17 -320 -14 -33 -16 -40 -18 -55 0 -6 -4 -9 -8 -8 -5 1
-33 -23 -64 -53 l-56 -54 -114 -23 c-113 -21 -371 -36 -566 -32 -46 1 -88 -2
-93 -5 -6 -4 -78 -6 -161 -6 -116 2 -149 -1 -149 -11 0 -10 -2 -10 -9 1 -7 11
-39 13 -177 8 -201 -8 -594 -8 -605 -1 -4 2 -27 0 -51 -5 -24 -6 -44 -6 -46
-2 -4 13 -104 -9 -140 -31 -53 -33 -55 -88 -2 -115 29 -14 460 -15 460 0 0 5
6 4 14 -2 10 -9 16 -9 21 -1 5 8 11 8 20 0 8 -7 20 -8 26 -4 7 4 41 6 77 5 58
-2 64 -1 58 15 -6 17 -6 17 12 1 15 -14 38 -16 163 -13 79 2 146 5 149 6 12 5
523 0 541 -5 11 -4 30 0 44 9 19 12 25 13 25 4 0 -20 234 -24 252 -5 11 12 14
12 24 -1 8 -11 15 -12 30 -4 12 6 133 9 332 7 172 -1 315 1 317 6 3 4 19 3 36
-3 43 -15 348 -5 359 12 6 10 8 10 12 -1 2 -7 25 -14 57 -16 52 -3 53 -2 47
22 -5 19 -3 23 9 19 8 -4 15 -14 15 -25 0 -17 17 -18 358 -18 196 0 366 4 377
8 11 5 28 3 38 -3 12 -8 22 -8 37 1 13 9 21 9 26 2 7 -12 354 -6 374 6 5 3 10
2 10 -2 0 -13 457 -16 465 -3 3 5 15 10 26 10 29 0 99 33 99 47 0 7 6 13 13
13 21 0 63 50 101 123 27 51 34 75 29 98 -4 21 0 35 12 49 12 14 15 27 11 47
-4 15 -6 42 -4 58 7 68 -1 273 -12 325 -26 120 -62 203 -109 253 -45 47 -122
86 -129 66 -3 -6 -9 -6 -17 1 -7 5 -21 9 -31 8 -11 -1 -41 2 -68 6 -33 6 -55
5 -67 -2 -12 -8 -20 -8 -24 -2 -4 6 -11 8 -16 4 -5 -3 -16 -1 -22 5 -18 14
-521 32 -1084 37 -263 3 -282 2 -277 -14 5 -16 5 -16 -6 0 -9 15 -27 17 -121
16 -69 -1 -105 -5 -97 -11 9 -6 6 -6 -7 -1 -34 13 -138 17 -131 5 4 -6 2 -11
-3 -11 -6 0 -11 4 -11 8 0 14 -249 15 -266 1 -10 -8 -14 -8 -14 0 0 7 -20 11
-50 11 -27 0 -50 -5 -50 -10 0 -6 -8 -5 -19 2 -15 9 -26 9 -45 0 -15 -7 -28
-8 -31 -2 -3 6 -152 9 -361 9 -313 0 -355 -1 -344 -14 10 -12 9 -15 -4 -15 -9
0 -16 7 -16 15 0 18 -23 19 -52 4 -15 -8 -19 -8 -14 0 5 8 -13 11 -58 11 -36
0 -68 -5 -71 -10 -4 -7 -12 -7 -25 0 -27 14 -80 13 -80 -2 0 -10 -2 -10 -8 -1
-6 9 -143 12 -562 11 -305 -1 -587 -4 -627 -8z m2198 -36 c-8 -29 -8 -29 -15
-5 -6 16 -4 26 5 32 18 11 20 8 10 -27z m-1246 16 c-3 -5 -11 -10 -16 -10 -6
0 -7 5 -4 10 3 6 11 10 16 10 6 0 7 -4 4 -10z m2180 0 c-3 -5 -12 -10 -18 -10
-7 0 -6 4 3 10 19 12 23 12 15 0z m-264 -23 c-10 -9 -11 -8 -5 6 3 10 9 15 12
12 3 -3 0 -11 -7 -18z m-548 -7 c-3 -11 -9 -20 -14 -20 -14 0 -11 28 4 33 6 3
13 6 14 6 0 1 -1 -8 -4 -19z m1233 8 c4 -6 3 -8 -4 -4 -6 3 -13 2 -17 -4 -4
-6 -11 -7 -18 -3 -9 6 -3 10 30 22 1 1 5 -4 9 -11z m-886 -16 c0 -7 5 -10 10
-7 6 3 10 1 10 -4 0 -15 -12 -13 -38 7 -22 17 -22 18 -2 18 11 0 20 -6 20 -14z
m151 2 c12 -14 11 -16 -5 -13 -11 2 -21 10 -24 17 -5 17 13 15 29 -4z m793
-16 c3 6 0 12 -6 15 -7 2 -9 8 -5 13 5 5 16 0 26 -12 9 -11 23 -24 31 -28 8
-3 4 -4 -8 -2 -36 7 -55 -3 -41 -20 6 -8 8 -14 4 -14 -4 0 -13 8 -20 17 -11
15 -13 15 -20 -6 -4 -13 -12 -20 -20 -17 -8 3 -16 0 -19 -7 -3 -9 -5 -9 -5 0
-1 7 8 17 19 23 11 6 20 21 20 34 0 33 12 40 26 15 6 -13 14 -17 18 -11z m474
1 c-6 -4 -8 -14 -5 -22 4 -11 1 -14 -9 -10 -8 3 -12 11 -9 17 3 6 8 19 11 29
5 14 9 16 15 6 4 -8 3 -16 -3 -20z m-2390 -28 c-6 -2 -14 3 -19 10 -8 12 -11
12 -19 -1 -8 -12 -10 -11 -10 6 0 31 8 34 35 10 13 -11 19 -23 13 -25z m1325
18 c-17 -17 -37 -1 -22 17 8 10 15 12 23 4 7 -7 7 -13 -1 -21z m-1967 -4 c-9
-9 -16 -13 -16 -8 0 12 22 34 28 28 2 -2 -3 -11 -12 -20z m2134 10 c7 -9 8
-15 2 -15 -5 0 -12 7 -16 15 -3 8 -4 15 -2 15 2 0 9 -7 16 -15z m140 0 c0 -8
-4 -15 -10 -15 -5 0 -10 -11 -10 -25 0 -18 -4 -23 -16 -18 -11 4 -15 1 -12
-13 2 -12 -3 -19 -12 -19 -22 0 -19 38 3 41 27 4 34 14 17 24 -13 8 -12 10 2
10 11 0 15 5 12 15 -4 9 0 15 10 15 9 0 16 -7 16 -15z m610 6 c0 -6 -4 -13
-10 -16 -5 -3 -10 1 -10 9 0 9 5 16 10 16 6 0 10 -4 10 -9z m-683 -28 c-16
-16 -17 -16 -17 0 0 10 5 15 10 12 6 -3 10 -1 10 6 0 7 3 9 7 5 4 -3 -1 -14
-10 -23z m547 21 c21 -8 21 -24 0 -24 -9 0 -13 5 -9 13 4 6 0 4 -8 -6 -14 -17
-15 -16 -20 3 -5 21 7 25 37 14z m346 -15 c0 -5 -4 -9 -10 -9 -5 0 -10 7 -10
16 0 8 5 12 10 9 6 -3 10 -10 10 -16z m160 0 c0 -6 -4 -7 -10 -4 -5 3 -10 11
-10 16 0 6 5 7 10 4 6 -3 10 -11 10 -16z m-1886 -4 c-4 -8 -8 -15 -10 -15 -2
0 -4 7 -4 15 0 8 4 15 10 15 5 0 7 -7 4 -15z m1011 5 c-3 -5 -10 -10 -16 -10
-5 0 -9 5 -9 10 0 6 7 10 16 10 8 0 12 -4 9 -10z m-345 -52 c0 -12 5 -16 18
-11 13 5 12 1 -5 -16 -25 -24 -46 -27 -62 -7 -13 15 -4 79 10 70 5 -3 9 0 9 7
0 19 29 -24 30 -43z m-142 16 c13 8 16 -3 4 -20 -4 -7 -15 -8 -29 -3 -25 9
-26 10 -17 33 6 15 7 15 19 0 6 -9 17 -14 23 -10z m733 -12 c-19 -2 -31 -9
-31 -18 0 -8 -8 -15 -17 -15 -15 -1 -16 -2 -2 -6 14 -3 13 -11 -8 -65 -24 -60
-25 -62 -7 -76 18 -14 18 -14 -3 -9 -19 4 -20 2 -11 -13 7 -10 20 -17 30 -15
10 2 16 0 13 -6 -4 -5 -13 -9 -22 -9 -14 0 -14 -2 1 -19 10 -11 16 -26 13 -33
-3 -8 -6 -6 -6 5 -1 10 -6 15 -12 12 -6 -4 -8 -13 -5 -21 3 -8 1 -14 -4 -14
-6 0 -10 6 -10 14 0 8 -7 22 -16 30 -9 9 -12 21 -7 28 4 7 8 41 10 74 l2 62
-24 -12 c-14 -6 -25 -19 -25 -28 0 -10 -10 -22 -21 -29 -12 -6 -17 -14 -12
-18 17 -11 22 -49 7 -55 -7 -3 -16 -1 -19 4 -4 6 -1 10 4 10 6 0 11 5 11 11 0
7 -9 9 -22 5 -49 -15 -78 -13 -78 5 0 9 -7 20 -16 23 -13 5 -14 9 -4 21 19 23
3 31 -20 10 -11 -10 -20 -13 -20 -7 0 6 5 14 10 17 6 4 8 11 5 16 -4 5 -1 9 5
9 15 0 60 -50 60 -66 0 -18 15 -18 30 1 10 13 9 15 -9 15 -15 0 -21 6 -21 21
0 11 -8 23 -18 25 -9 3 -22 16 -29 30 -9 20 -9 26 3 31 27 10 42 -4 36 -34 -2
-15 -1 -25 3 -21 9 8 35 -14 28 -24 -2 -4 3 -5 11 -2 8 3 18 19 21 35 8 37 25
28 25 -13 0 -42 11 -29 15 19 2 21 8 39 14 41 5 2 7 10 4 18 -3 9 2 14 16 14
18 0 20 -3 12 -19 -6 -10 -18 -22 -28 -25 -15 -6 -15 -8 -3 -16 10 -6 20 -4
31 6 9 8 20 14 25 13 20 -3 23 2 14 27 -7 17 -7 23 1 19 6 -4 13 2 16 13 3 11
11 18 17 16 7 -3 19 2 26 11 13 16 15 15 28 -2 12 -16 10 -18 -17 -21z m229
29 c0 -6 -4 -13 -10 -16 -5 -3 -10 1 -10 9 0 9 5 16 10 16 6 0 10 -4 10 -9z
m364 -7 c3 -8 2 -12 -4 -9 -6 3 -10 10 -10 16 0 14 7 11 14 -7z m-4041 -37
c-4 -6 -10 -2 -14 9 -12 31 -9 40 6 20 8 -10 11 -24 8 -29z m267 39 c0 -3 -4
-8 -10 -11 -5 -3 -10 -1 -10 4 0 6 5 11 10 11 6 0 10 -2 10 -4z m1497 -18 c-3
-8 -6 -5 -6 6 -1 11 2 17 5 13 3 -3 4 -12 1 -19z m1166 -4 c-4 -10 -9 -12 -15
-6 -12 12 -1 35 12 27 5 -3 6 -13 3 -21z m207 -2 c-25 -4 -35 2 -26 17 5 7 13
7 27 -2 20 -12 20 -12 -1 -15z m119 6 c5 -13 7 -25 5 -27 -5 -6 -34 26 -34 38
0 20 20 11 29 -11z m482 -1 c-14 -14 -51 -19 -51 -7 0 6 7 10 15 10 8 0 15 4
15 10 0 5 7 7 16 3 11 -4 12 -9 5 -16z m164 5 c-3 -3 -11 0 -18 7 -9 10 -8 11
6 5 10 -3 15 -9 12 -12z m-3208 2 c-3 -3 -12 -4 -19 -1 -8 3 -5 6 6 6 11 1 17
-2 13 -5z m208 -3 c3 -5 1 -12 -5 -16 -5 -3 -10 1 -10 9 0 18 6 21 15 7z
m1501 -7 c10 4 31 -5 52 -21 20 -15 46 -26 58 -25 13 1 26 -3 30 -9 4 -7 -1
-9 -15 -4 -23 7 -23 3 10 -70 9 -22 21 -74 24 -115 4 -41 13 -81 19 -89 8 -11
8 -13 -1 -7 -10 5 -13 -6 -13 -43 0 -29 5 -51 10 -51 7 0 7 -6 0 -19 -5 -11
-10 -49 -10 -85 0 -36 -5 -86 -12 -111 -11 -39 -10 -48 2 -55 11 -7 11 -10 2
-10 -7 0 -26 -21 -41 -46 -40 -63 -96 -103 -143 -104 -48 0 -48 10 -1 35 52
28 71 60 89 145 19 92 24 396 7 423 -4 6 -6 29 -5 52 3 46 -48 145 -74 145 -8
0 -22 7 -30 15 -9 8 -26 15 -38 15 -34 0 -40 12 -15 31 18 13 29 15 51 7 15
-6 36 -7 44 -4z m1244 1 c10 -12 7 -17 -14 -26 -33 -15 -33 -27 -1 -35 14 -3
25 -10 25 -16 0 -5 5 -6 11 -3 6 4 8 13 5 21 -3 8 1 14 9 14 8 0 15 -8 15 -18
0 -23 19 -42 42 -42 21 0 22 -4 8 -31 -8 -14 -7 -25 5 -41 8 -13 16 -19 16
-15 1 4 2 12 3 19 0 6 7 13 15 16 9 3 11 0 6 -8 -4 -7 -2 -16 4 -20 8 -5 4
-12 -13 -24 -21 -13 -26 -14 -26 -3 0 8 -16 28 -36 46 -30 25 -34 32 -20 37
21 8 21 25 -1 21 -32 -5 -45 -18 -39 -42 3 -12 3 -25 -1 -29 -10 -10 -34 55
-28 74 3 11 -1 20 -10 24 -9 3 -15 0 -15 -9 0 -24 -20 -17 -21 8 l0 22 -9 -22
c-13 -33 -24 -28 -17 7 5 23 2 32 -13 40 -11 6 -20 15 -20 21 0 6 12 1 27 -10
l26 -21 19 20 c11 11 16 25 13 30 -10 16 21 12 35 -5z m211 -8 c-10 -9 -11 -8
-5 6 3 10 9 15 12 12 3 -3 0 -11 -7 -18z m144 3 c5 -16 13 -19 43 -16 20 2 31
2 25 -1 -23 -9 -14 -24 11 -17 28 7 40 -15 26 -51 -7 -18 -6 -23 3 -19 9 3 12
-8 12 -36 0 -23 6 -45 13 -49 10 -6 10 -11 -3 -21 -8 -7 -17 -11 -18 -9 -31
43 -37 59 -22 59 19 0 19 14 1 29 -10 8 -13 23 -9 46 l6 35 -42 -3 c-26 -1
-40 -6 -37 -13 3 -7 -3 -10 -15 -7 -22 6 -24 14 -7 31 9 9 9 15 0 24 -14 14
-16 38 -3 38 5 0 12 -9 16 -20z m395 10 c11 -7 12 -12 3 -21 -13 -13 -33 -4
-33 17 0 16 9 18 30 4z m-3430 -4 c0 -11 -19 -15 -25 -6 -3 5 1 10 9 10 9 0
16 -2 16 -4z m1166 -32 c44 -33 84 -91 84 -123 0 -6 8 -11 17 -9 10 2 19 -5
21 -16 3 -14 0 -17 -12 -13 -12 5 -16 0 -16 -23 0 -16 4 -31 9 -34 11 -7 4
-293 -10 -381 -6 -38 -12 -80 -13 -91 -3 -23 -53 -94 -67 -94 -4 0 -16 -13
-25 -30 -10 -16 -21 -25 -24 -20 -9 15 -70 0 -70 -16 0 -8 -5 -14 -11 -14 -6
0 -8 7 -5 16 3 9 6 25 7 37 0 12 3 16 6 9 4 -9 12 -8 34 5 16 10 29 22 29 27
0 5 7 17 16 27 9 10 20 36 25 60 14 61 19 189 8 189 -5 0 -9 5 -9 11 0 6 7 9
15 5 8 -3 15 0 15 7 0 7 -5 80 -10 164 -9 142 -11 156 -41 213 -34 65 -44 74
-101 84 -64 12 -40 46 33 46 38 0 56 -7 95 -36z m644 16 c0 -11 -4 -20 -10
-20 -5 0 -10 9 -10 20 0 11 5 20 10 20 6 0 10 -9 10 -20z m200 16 c0 -3 -4 -8
-10 -11 -5 -3 -10 -1 -10 4 0 6 5 11 10 11 6 0 10 -2 10 -4z m1316 -7 c16 -5
51 -31 78 -57 41 -38 50 -52 47 -75 -1 -16 4 -36 12 -45 8 -9 15 -24 15 -32 4
-107 1 -319 -6 -368 -5 -35 -5 -65 -2 -67 9 -6 -55 -138 -74 -154 -9 -8 -16
-20 -16 -28 0 -8 -4 -12 -10 -8 -12 7 -80 -21 -80 -34 0 -5 -9 -7 -20 -4 -20
5 -29 33 -11 33 6 0 22 11 37 25 15 14 30 25 34 25 7 0 22 41 25 65 0 6 7 21
15 35 22 38 21 481 -1 530 -9 19 -21 47 -27 61 -12 31 -87 71 -118 63 -31 -8
-38 12 -12 30 26 18 75 21 114 5z m-469 -14 c8 -22 -6 -33 -17 -15 -13 20 -12
30 0 30 6 0 13 -7 17 -15z m750 -7 c-3 -8 -6 -5 -6 6 -1 11 2 17 5 13 3 -3 4
-12 1 -19z m-1344 -6 c13 -14 14 -21 5 -30 -18 -18 -28 -15 -37 11 -15 38 4
50 32 19z m243 2 c36 -17 45 -34 18 -34 -8 0 -12 5 -8 11 4 7 0 9 -14 5 -15
-5 -24 -1 -32 14 -13 24 -8 25 36 4z m-543 -10 c-6 -16 24 -19 47 -4 12 8 12
10 -5 11 -11 0 -14 3 -7 6 14 5 42 -14 42 -28 0 -5 -6 -9 -14 -9 -9 0 -12 -7
-9 -19 4 -15 -2 -20 -29 -24 -40 -6 -53 0 -37 19 9 11 8 15 -5 20 -23 9 -20
39 3 41 14 1 18 -3 14 -13z m213 -11 c-10 -10 -19 5 -10 18 6 11 8 11 12 0 2
-7 1 -15 -2 -18z m-421 8 c-3 -5 3 -12 12 -14 13 -3 11 -5 -6 -6 -20 -1 -22
-4 -13 -13 15 -15 15 -28 1 -28 -5 0 -7 5 -4 10 3 6 0 13 -9 16 -13 5 -12 8 2
25 17 20 27 26 17 10z m372 3 c-3 -3 -12 -4 -19 -1 -8 3 -5 6 6 6 11 1 17 -2
13 -5z m-433 -43 c-4 -19 -10 -29 -16 -23 -5 5 -4 20 2 37 14 36 22 28 14 -14z
m1261 12 c14 -15 25 -22 25 -15 0 7 5 10 11 6 8 -5 6 -10 -6 -16 -12 -8 -23
-4 -41 13 -22 20 -31 39 -19 39 2 0 16 -12 30 -27z m-1121 -29 c-4 -15 -2 -24
5 -24 6 0 14 0 18 0 4 0 8 6 9 14 1 8 11 23 22 34 20 20 32 19 32 -1 0 -6 -3
-7 -7 -4 -11 12 -32 -28 -26 -51 4 -19 2 -23 -13 -20 -14 2 -20 -4 -23 -22 -3
-24 -2 -24 16 -7 24 21 53 22 53 2 0 -7 8 -19 18 -25 12 -8 13 -13 5 -16 -12
-5 -19 -54 -9 -54 2 0 11 -3 20 -6 20 -8 23 31 4 40 -7 3 4 4 24 2 21 -2 37
-1 36 3 -3 30 4 50 17 45 8 -4 15 -13 15 -22 0 -8 3 -12 7 -9 3 4 12 2 19 -4
8 -7 14 -6 20 2 4 7 0 17 -10 25 -11 8 -13 14 -7 19 6 3 11 1 11 -4 0 -6 4
-11 9 -11 5 0 8 13 7 29 0 19 -5 27 -13 24 -7 -3 -10 -9 -7 -14 3 -5 -2 -6
-10 -3 -8 3 -12 13 -10 22 3 9 -2 5 -12 -10 -10 -15 -30 -32 -45 -37 -23 -8
-26 -7 -22 10 5 18 15 23 41 20 15 -2 16 25 2 34 -8 5 -7 11 1 21 13 16 49 19
49 4 0 -5 -8 -7 -17 -3 -10 3 -15 3 -11 -2 4 -4 20 -9 35 -11 24 -3 28 1 29
22 2 32 11 41 26 26 9 -9 9 -12 0 -12 -7 0 -12 -7 -12 -15 0 -8 5 -15 10 -15
13 0 13 -37 0 -42 -5 -1 -10 -20 -12 -41 -1 -27 -9 -42 -26 -53 -20 -13 -26
-14 -33 -3 -8 12 -11 11 -19 -1 -9 -13 -10 -13 -10 0 -1 12 -2 12 -10 -2 -6
-10 -18 -14 -31 -11 -19 5 -20 3 -14 -30 6 -30 4 -37 -14 -47 -23 -12 -61 -5
-61 11 0 5 -9 9 -20 9 -23 0 -25 -8 -5 -34 8 -10 12 -23 9 -27 -7 -12 -37 2
-52 23 -9 12 -21 17 -32 13 -10 -3 -25 2 -36 12 -17 17 -17 18 1 21 9 2 22 -2
26 -10 8 -10 12 -9 21 7 12 20 12 20 17 -2 6 -22 7 -21 24 8 17 31 17 31 -3
26 -11 -3 -23 -1 -26 4 -3 6 -11 5 -20 -2 -11 -9 -14 -8 -14 4 0 8 -12 18 -27
22 -15 3 -31 11 -34 17 -4 7 -14 6 -29 -2 -32 -17 -35 -6 -6 23 14 14 26 23
28 22 2 -2 14 5 28 16 l25 19 -32 -6 c-22 -4 -33 -3 -33 5 0 6 18 11 44 11 49
0 64 11 41 30 -10 9 -15 9 -15 1 0 -6 -4 -11 -9 -11 -16 0 -7 35 14 52 26 21
47 6 39 -28z m986 25 c0 -5 -7 -9 -15 -9 -9 0 -12 6 -9 15 6 15 24 11 24 -6z
m62 -2 c-23 -11 -30 -27 -10 -27 6 0 8 -3 5 -6 -4 -4 -14 -1 -22 6 -13 11 -18
10 -30 -6 -9 -12 -14 -14 -15 -6 0 7 8 23 17 36 13 17 24 21 47 17 30 -4 30
-4 8 -14z m764 -4 c-7 -7 -26 7 -26 19 0 6 6 6 15 -2 9 -7 13 -15 11 -17z
m-1080 -23 c2 0 4 -4 4 -10 0 -6 -9 -6 -26 0 -37 14 -46 12 -39 -9 10 -32 -17
-43 -43 -16 -12 13 -18 26 -13 29 5 3 11 -1 15 -9 3 -8 13 -15 22 -15 13 0 14
3 5 14 -6 7 -9 21 -5 29 5 15 10 15 41 2 20 -8 37 -15 39 -15z m669 10 c3 -5
1 -10 -4 -10 -6 0 -11 5 -11 10 0 6 2 10 4 10 3 0 8 -4 11 -10z m-295 -21 c0
-14 -17 -10 -23 5 -4 10 -1 13 9 9 7 -3 14 -9 14 -14z m-300 -5 c0 -2 -7 -4
-15 -4 -8 0 -15 4 -15 10 0 5 7 7 15 4 8 -4 15 -8 15 -10z m-1680 -4 c0 -5 -2
-10 -4 -10 -3 0 -8 5 -11 10 -3 6 -1 10 4 10 6 0 11 -4 11 -10z m1034 -5 c-7
-16 -24 -21 -24 -6 0 8 7 13 27 20 1 1 0 -6 -3 -14z m-290 -10 c3 -8 1 -15 -4
-15 -6 0 -10 7 -10 15 0 8 2 15 4 15 2 0 6 -7 10 -15z m1326 5 c0 -5 -4 -10
-10 -10 -5 0 -10 5 -10 10 0 6 5 10 10 10 6 0 10 -4 10 -10z m-30 -4 c0 -2 -7
-6 -15 -10 -8 -3 -15 -1 -15 4 0 6 7 10 15 10 8 0 15 -2 15 -4z m87 -2 c-3 -3
-12 -4 -19 -1 -8 3 -5 6 6 6 11 1 17 -2 13 -5z m-1407 -8 c0 -3 -4 -8 -10 -11
-5 -3 -10 -1 -10 4 0 6 5 11 10 11 6 0 10 -2 10 -4z m952 -27 c-3 -20 0 -34 9
-40 17 -10 5 -23 -14 -16 -9 3 -13 18 -11 44 3 47 2 43 12 43 5 0 6 -14 4 -31z
m293 21 c12 10 15 10 15 -4 0 -12 -9 -16 -35 -16 -29 0 -36 -4 -41 -25 -3 -14
-10 -25 -15 -25 -6 0 -5 9 1 20 6 11 8 20 5 20 -2 0 3 9 12 20 13 14 20 17 30
8 9 -7 17 -7 28 2z m-333 -12 c4 -7 8 -19 8 -27 0 -11 -3 -11 -17 0 -15 13
-16 12 -11 -8 5 -18 2 -23 -12 -23 -17 0 -18 2 -5 27 8 15 13 29 11 31 -8 7
-55 -11 -53 -20 1 -6 -4 -13 -12 -16 -10 -3 -12 0 -8 12 4 10 7 21 7 24 0 13
83 13 92 0z m1038 -14 c0 -20 -7 -17 -20 6 -9 16 -8 18 5 14 8 -4 15 -12 15
-20z m-1260 8 c0 -13 -12 -22 -22 -16 -10 6 -1 24 13 24 5 0 9 -4 9 -8z m636
-20 c-4 -11 -15 -22 -25 -25 -14 -3 -17 -11 -13 -32 4 -23 2 -26 -14 -21 -11
3 -25 2 -33 -3 -21 -13 -43 -2 -36 19 3 10 1 21 -5 25 -14 9 -13 38 3 32 6 -2
11 -10 10 -16 -2 -6 4 -11 12 -11 9 0 12 6 9 18 -5 16 -5 16 8 1 12 -15 16
-15 32 -3 11 7 22 11 26 9 4 -3 10 5 13 17 4 12 9 19 13 16 3 -4 3 -15 0 -26z
m-820 7 c7 -12 -15 -31 -28 -23 -4 3 -8 12 -8 20 0 17 26 19 36 3z m-516 -8
c0 -5 -3 -17 -6 -25 -5 -13 -9 -14 -20 -5 -11 9 -11 15 -3 25 13 16 29 18 29
5z m1410 -3 c0 -22 -14 -33 -45 -35 l-30 -2 28 24 c31 28 47 32 47 13z m-355
-8 c3 -5 2 -10 -4 -10 -6 0 -8 -7 -5 -15 8 -19 -19 -20 -35 -2 -8 10 -7 17 1
25 15 15 35 15 43 2z m485 -11 c-7 -11 -14 -18 -17 -15 -3 3 0 12 7 21 18 21
23 19 10 -6z m80 10 c0 -5 -4 -8 -9 -4 -5 3 -12 1 -16 -5 -3 -5 -12 -10 -18
-10 -7 0 -3 7 7 15 23 18 36 19 36 4z m285 -39 c-10 -31 -20 -24 -18 12 2 45
2 45 14 25 6 -9 7 -26 4 -37z m33 25 c-3 -3 -9 2 -12 12 -6 14 -5 15 5 6 7 -7
10 -15 7 -18z m-2218 5 c0 -5 -2 -10 -4 -10 -3 0 -8 5 -11 10 -3 6 -1 10 4 10
6 0 11 -4 11 -10z m1397 -20 c3 -11 9 -20 14 -20 5 0 9 -7 9 -15 0 -13 -7 -15
-36 -9 -33 6 -36 5 -30 -13 5 -15 1 -22 -15 -26 -15 -4 -19 -2 -15 9 6 15 -27
15 -41 -1 -5 -4 -2 -5 6 0 10 6 12 2 7 -13 -5 -14 -1 -24 11 -31 11 -6 13 -11
5 -11 -7 0 -11 -4 -8 -9 3 -5 -1 -11 -9 -15 -9 -3 -12 -12 -8 -22 5 -14 3 -15
-15 -5 -12 7 -22 16 -22 22 0 6 4 8 9 5 5 -4 11 -1 13 6 3 7 -7 19 -21 26 -17
9 -27 10 -29 3 -2 -6 -12 -11 -23 -11 -10 0 -19 -4 -19 -9 0 -5 -10 -7 -22 -3
-16 4 -19 2 -13 -9 7 -12 6 -12 -9 0 -15 12 -19 12 -26 1 -4 -7 -6 -20 -3 -29
5 -13 3 -14 -8 -3 -11 10 -10 18 5 47 18 34 36 46 36 25 0 -5 9 -10 20 -10 11
0 20 3 20 7 0 13 -44 53 -58 53 -12 0 -12 3 -2 15 13 16 35 15 35 -1 0 -19 17
-34 38 -35 12 0 16 -3 9 -6 -12 -5 -7 -23 6 -23 23 1 42 30 36 54 -6 27 -29
35 -38 14 -3 -9 -9 -8 -20 6 -19 24 -13 35 19 32 32 -3 57 -26 50 -45 -3 -9 4
-5 15 8 15 18 20 19 20 7 0 -21 43 -21 60 -1 10 12 10 18 -1 32 -12 15 -12 16
4 10 9 -3 17 -2 17 3 0 18 22 10 27 -10z m49 -11 c14 -15 15 -20 4 -17 -16 3
-30 18 -30 31 0 11 6 8 26 -14z m-356 -1 c0 6 7 12 15 12 18 0 18 -4 5 -30 -5
-11 -14 -29 -20 -40 -8 -16 -7 -18 7 -13 11 4 14 3 9 -6 -5 -7 -16 -9 -29 -5
-32 9 -33 13 -11 28 16 12 17 18 7 34 -13 22 -5 40 9 20 6 -10 8 -10 8 0z
m624 -13 c-11 -8 -14 -15 -6 -15 8 0 12 -16 12 -46 0 -40 2 -45 15 -34 12 10
15 10 15 -4 0 -17 16 -22 22 -7 2 5 20 2 40 -6 32 -13 36 -17 23 -29 -14 -15
-40 -20 -31 -6 2 4 -4 9 -15 9 -27 2 -24 -6 16 -43 19 -17 35 -38 35 -45 0 -7
-15 1 -32 18 -31 28 -58 34 -58 12 0 -5 6 -9 13 -9 15 -1 51 -49 42 -58 -3 -3
-10 0 -15 8 -8 13 -10 13 -10 -2 0 -11 -6 -15 -20 -11 -19 5 -19 6 -4 18 13 9
14 14 5 19 -6 4 -18 2 -26 -4 -12 -10 -15 -9 -15 3 0 8 4 17 8 19 12 4 23 78
12 78 -9 0 -24 -30 -22 -42 1 -5 -3 -8 -9 -8 -6 0 -8 9 -4 20 9 28 -5 24 -39
-10 -27 -28 -54 -41 -42 -21 4 5 2 20 -3 33 -9 21 -10 21 -11 3 0 -17 -2 -17
-10 -5 -14 22 -12 28 11 40 24 13 51 -3 42 -26 -6 -17 9 -18 25 -2 15 15 16
32 1 22 -8 -5 -8 -1 0 14 12 22 0 39 -19 27 -5 -3 -10 -1 -10 4 0 6 11 11 25
11 21 0 25 5 25 28 0 15 -4 22 -8 16 -9 -14 -70 -26 -77 -15 -6 10 18 21 45
21 14 0 17 5 12 22 -4 18 -2 20 16 16 12 -4 25 -2 28 4 3 5 9 7 12 4 3 -4 -3
-13 -14 -21z m144 7 c6 -18 -15 -14 -22 4 -4 10 -1 14 6 12 6 -2 14 -10 16
-16z m385 4 c4 -10 1 -13 -8 -9 -8 3 -12 9 -9 14 7 12 11 11 17 -5z m-1483 -6
c0 -5 -4 -10 -10 -10 -5 0 -10 5 -10 10 0 6 5 10 10 10 6 0 10 -4 10 -10z m84
-17 c4 -9 3 -20 -2 -25 -6 -6 -11 1 -14 16 -6 29 6 35 16 9z m76 8 c0 -12 -20
-25 -27 -18 -7 7 6 27 18 27 5 0 9 -4 9 -9z m-210 -16 c10 -12 16 -13 27 -3
11 9 16 9 23 -1 5 -9 10 -10 14 -2 14 22 26 10 26 -24 0 -28 4 -35 20 -35 13
0 18 -5 14 -15 -3 -8 -13 -14 -22 -13 -37 3 -48 -3 -67 -34 -18 -31 -19 -31
-28 -11 -9 22 -13 21 -56 -4 -2 -2 4 -12 14 -23 18 -20 18 -21 -3 -27 -17 -4
-20 -9 -11 -19 8 -10 6 -17 -9 -30 -22 -18 -19 -56 4 -47 8 3 14 0 14 -6 0 -6
6 -11 13 -11 14 0 16 27 5 45 -8 13 45 72 60 67 7 -2 12 1 12 7 0 6 3 10 8 10
4 -1 22 2 40 6 22 5 31 12 28 21 -3 8 -1 14 4 14 6 0 10 10 10 23 0 17 6 22
24 22 21 0 23 -2 12 -15 -7 -8 -16 -26 -19 -40 -5 -23 -5 -23 7 -7 8 10 18 17
22 15 5 -1 29 11 54 27 25 16 51 28 58 27 10 -3 10 1 0 17 -16 26 -25 26 -33
1 -9 -28 -23 -16 -18 14 5 24 4 25 -21 13 -28 -13 -32 -22 -16 -32 6 -3 10
-11 10 -18 0 -6 -7 -2 -15 10 -18 25 -13 43 17 62 18 11 22 11 30 -3 5 -9 18
-16 29 -16 11 0 33 -7 48 -15 33 -17 49 -45 22 -38 -10 2 -27 -6 -41 -20 -17
-17 -32 -23 -54 -21 -21 3 -26 1 -17 -5 21 -13 5 -29 -24 -23 -26 5 -31 -3
-16 -27 7 -11 13 -12 23 -3 17 14 60 12 54 -3 -2 -5 -9 -9 -15 -8 -6 2 -11 -6
-11 -17 0 -15 9 -22 30 -26 26 -6 30 -11 30 -37 0 -29 1 -30 15 -11 14 18 14
17 15 -13 0 -32 -1 -33 -40 -33 l-40 0 16 25 c10 15 12 25 5 25 -6 0 -11 9
-11 19 0 29 -44 42 -54 16 -7 -20 11 -68 24 -60 5 3 10 2 10 -4 0 -20 -19 -21
-30 -1 -9 17 -14 19 -26 9 -10 -8 -18 -9 -25 -2 -14 14 -1 41 23 49 11 3 17 8
14 12 -3 3 1 14 11 24 18 20 11 23 -17 8 -13 -7 -21 -6 -30 5 -10 12 -9 15 4
15 9 0 16 5 16 10 0 14 -23 12 -44 -3 -15 -11 -17 -17 -7 -35 6 -12 9 -22 6
-22 -10 0 -31 23 -38 43 -5 14 -11 16 -27 7 -11 -6 -20 -16 -20 -22 0 -9 -3
-9 -11 -1 -7 7 -17 4 -35 -14 -13 -13 -24 -26 -24 -29 0 -3 17 -4 38 -3 21 2
43 0 50 -5 7 -4 12 -1 12 9 0 12 4 14 19 6 10 -6 20 -9 22 -8 2 1 -2 -4 -10
-10 -8 -7 -11 -13 -5 -14 5 0 -1 -4 -14 -10 -13 -5 -21 -13 -18 -18 3 -5 -4
-12 -17 -16 -13 -4 -17 -8 -10 -11 7 -3 27 1 43 10 27 13 32 13 37 1 3 -8 9
-13 13 -10 5 3 11 1 15 -5 6 -9 -7 -14 -27 -11 -5 0 -8 -8 -8 -20 0 -11 -4
-17 -10 -14 -5 3 -10 1 -10 -4 0 -6 7 -11 17 -11 19 0 9 -13 -12 -16 -8 -1
-15 2 -15 8 0 6 -6 8 -14 5 -8 -3 -17 -1 -19 6 -3 7 -10 -3 -17 -21 -10 -26
-15 -30 -26 -21 -19 16 -18 29 4 30 14 0 14 2 2 7 -14 6 -16 16 -12 47 1 6 14
23 28 39 21 22 24 30 13 36 -16 11 -32 2 -23 -12 4 -7 2 -8 -5 -4 -6 4 -18 0
-27 -8 -8 -9 -25 -16 -37 -16 -26 0 -59 -51 -51 -78 5 -14 4 -15 -5 -2 -8 11
-11 12 -11 2 0 -7 -4 -11 -9 -8 -5 4 -11 1 -13 -5 -2 -7 -11 6 -20 28 -15 38
-14 40 3 36 10 -3 15 -11 12 -19 -3 -8 0 -14 6 -14 6 0 11 14 11 31 0 17 -4
28 -10 24 -5 -3 -10 -1 -10 4 0 6 -9 11 -21 11 -11 0 -19 5 -17 12 7 19 24 20
42 3 9 -9 20 -14 25 -11 5 4 11 0 14 -6 4 -10 7 -10 17 -1 11 10 10 14 -3 19
-9 3 -15 10 -12 14 3 5 0 12 -6 16 -6 3 -15 0 -20 -7 -5 -8 -9 -9 -9 -3 0 7
-8 15 -17 18 -22 9 -113 -86 -113 -117 0 -12 -4 -17 -8 -12 -4 6 -15 10 -24
11 -50 2 -59 5 -53 15 4 6 13 8 21 5 20 -8 31 24 13 38 -9 6 -18 19 -22 28 -4
12 -12 15 -23 11 -12 -5 -11 0 6 20 12 14 29 23 36 20 8 -3 14 0 14 7 0 6 -4
8 -10 5 -5 -3 -10 1 -10 9 0 10 9 16 21 16 14 0 19 -5 16 -14 -5 -12 1 -14 26
-11 28 3 30 2 15 -9 -10 -7 -15 -15 -12 -18 8 -9 44 3 44 14 0 5 8 7 18 4 10
-4 37 -8 60 -10 42 -3 52 5 52 44 0 10 8 21 18 25 16 6 16 7 -1 20 -12 8 -14
15 -8 20 16 9 13 35 -3 29 -8 -3 -17 0 -21 6 -5 8 -10 8 -20 0 -9 -7 -15 -8
-19 -1 -10 16 29 32 42 19 9 -9 12 -4 12 23 0 25 3 30 10 19 5 -8 10 -25 10
-37 0 -29 17 -38 37 -21 13 10 17 10 20 1 7 -20 26 -15 46 12 17 24 17 25 -1
25 -10 0 -22 -4 -27 -9 -6 -6 -11 -1 -11 14 -1 13 3 23 8 22 6 -1 12 3 15 9 2
8 -11 10 -42 8 -46 -4 -55 2 -33 24 16 16 23 15 38 -3z m1094 -5 c-4 -8 -6
-23 -6 -33 1 -10 -5 -16 -11 -14 -7 2 -11 15 -9 28 3 28 -14 14 -20 -15 -3
-17 -4 -17 -16 -3 -11 13 -10 18 7 34 25 23 65 26 55 3z m-1759 0 c3 -5 1 -10
-4 -10 -6 0 -11 5 -11 10 0 6 2 10 4 10 3 0 8 -4 11 -10z m1880 0 c4 -6 -6
-10 -22 -10 -22 0 -25 2 -13 10 19 12 27 12 35 0z m296 -22 c-28 -10 -34 -7
-25 15 5 14 10 15 27 5 l21 -11 -23 -9z m69 16 c0 -8 -5 -12 -10 -9 -6 4 -8
11 -5 16 9 14 15 11 15 -7z m-817 -7 c2 -7 19 -14 37 -15 44 -3 54 -11 39 -28
-8 -10 -14 -11 -19 -4 -4 6 -7 -3 -7 -20 0 -28 3 -31 24 -25 25 6 28 -1 13
-25 -5 -9 -5 -19 2 -27 8 -10 6 -13 -6 -13 -10 0 -14 -4 -11 -10 3 -5 -1 -10
-10 -10 -8 0 -18 -7 -21 -15 -4 -8 -15 -15 -26 -15 -17 0 -18 3 -9 14 16 20
-15 56 -47 56 -21 0 -22 2 -12 15 17 21 27 19 55 -9 l25 -25 15 22 c14 19 14
22 1 25 -11 2 -14 11 -9 34 5 26 3 29 -13 26 -14 -3 -18 -11 -16 -32 2 -17 -1
-25 -7 -21 -17 10 -13 46 7 61 15 12 12 12 -16 4 -25 -7 -32 -6 -29 3 2 7 9
12 15 12 5 0 14 3 18 8 4 4 2 7 -4 7 -7 0 -12 5 -12 10 0 14 17 12 23 -3z
m127 3 c0 -5 -5 -10 -11 -10 -5 0 -7 5 -4 10 3 6 8 10 11 10 2 0 4 -4 4 -10z
m-1870 -20 c11 -11 16 -20 11 -20 -6 0 -13 5 -16 10 -5 8 -11 7 -21 -1 -11 -9
-14 -8 -14 3 0 14 9 28 17 28 2 0 12 -9 23 -20z m1160 -15 c0 -10 -5 -11 -24
-2 -18 9 -22 15 -14 25 12 14 38 -1 38 -23z m965 15 c-4 -6 -11 -8 -16 -5 -5
4 -9 2 -9 -4 0 -5 6 -12 13 -14 6 -3 8 -6 2 -6 -5 0 -17 4 -25 9 -13 9 -13 11
0 20 20 13 43 13 35 0z m-1810 -10 c3 -5 2 -10 -4 -10 -5 0 -13 5 -16 10 -3 6
-2 10 4 10 5 0 13 -4 16 -10z m1585 -21 c0 -22 -12 -24 -41 -8 -20 10 -20 11
-3 24 23 16 44 9 44 -16z m-930 11 c0 -5 -7 -7 -15 -4 -8 4 -15 8 -15 10 0 2
7 4 15 4 8 0 15 -4 15 -10z m-390 -20 c0 -13 -7 -20 -20 -20 -25 0 -25 9 -2
26 22 17 22 17 22 -6z m66 -3 c33 -38 36 -46 14 -40 -29 8 -66 63 -42 63 5 0
17 -10 28 -23z m986 1 c3 -24 28 -38 28 -15 0 8 7 18 16 21 12 5 15 2 10 -10
-3 -8 -6 -20 -6 -25 0 -5 -8 -9 -18 -9 -21 0 -66 43 -55 53 12 13 22 7 25 -15z
m532 -12 c-3 -8 -12 -12 -20 -9 -17 6 -9 23 11 23 8 0 12 -6 9 -14z m416 -7
c0 -6 -4 -7 -10 -4 -5 3 -10 11 -10 16 0 6 5 7 10 4 6 -3 10 -11 10 -16z
m-1873 -4 c9 -25 -4 -29 -17 -6 -7 15 -7 21 0 21 6 0 13 -7 17 -15z m1503 11
c0 -3 -4 -8 -10 -11 -5 -3 -10 -1 -10 4 0 6 5 11 10 11 6 0 10 -2 10 -4z
m-579 -50 c5 3 9 -2 9 -10 0 -10 9 -16 25 -16 14 0 25 -4 25 -10 0 -5 -5 -10
-12 -10 -9 0 -8 -3 1 -12 11 -10 14 -10 18 0 3 6 11 12 19 12 10 0 11 -6 4
-26 -13 -32 -13 -47 -1 -39 16 9 32 -30 19 -43 -9 -9 -9 -15 0 -24 9 -9 12 -8
12 5 0 24 28 77 40 77 5 0 7 -6 4 -14 -9 -23 9 -26 59 -11 28 8 49 10 52 4 4
-5 -3 -13 -14 -17 -18 -6 -18 -10 -6 -39 8 -18 21 -33 30 -33 8 0 15 -4 15
-10 0 -17 14 -11 28 11 13 20 12 21 -12 15 -25 -6 -36 7 -16 19 5 3 7 27 4 53
-3 35 -2 42 5 25 18 -41 44 -63 58 -51 20 16 15 -4 -7 -32 -11 -14 -20 -30
-20 -37 0 -6 -6 -14 -12 -17 -9 -3 -8 -8 5 -16 9 -6 17 -18 17 -26 0 -8 -5
-12 -10 -9 -6 4 -17 1 -26 -5 -12 -11 -11 -15 12 -26 35 -18 50 -18 34 1 -9
10 -9 15 -1 15 6 0 11 7 11 15 0 8 8 15 17 15 9 0 14 -3 10 -6 -3 -3 9 -18 26
-34 l31 -27 -30 1 c-24 1 -30 5 -26 19 3 11 -1 17 -11 17 -20 0 -19 -38 1 -62
12 -15 12 -16 -6 -11 -12 3 -23 12 -26 20 -9 21 -26 6 -27 -25 -2 -24 -2 -24
-6 -4 -2 12 -9 20 -14 17 -5 -4 -9 -1 -9 4 0 6 5 11 10 11 6 0 10 5 10 10 0 6
-7 10 -15 10 -8 0 -15 9 -15 20 0 15 -7 20 -25 20 -30 0 -32 11 -5 35 23 21
26 35 6 35 -13 0 -31 27 -27 43 0 4 -12 1 -29 -8 -16 -9 -30 -22 -30 -30 0 -8
-7 -15 -16 -15 -17 0 -46 -25 -38 -33 3 -3 1 -15 -6 -26 -9 -17 -8 -22 4 -27
22 -9 30 -42 13 -59 -18 -18 -29 -8 -17 15 7 14 5 19 -11 23 -12 3 -18 10 -14
16 3 7 -2 11 -14 11 -12 0 -21 5 -21 10 0 6 -7 10 -15 10 -8 0 -15 -4 -15 -9
0 -5 -11 -19 -24 -32 -26 -25 -26 -42 -1 -32 9 3 23 -1 32 -8 15 -13 16 -11 9
14 -6 25 -5 27 12 18 10 -5 25 -18 33 -27 12 -15 12 -16 -8 -10 -12 4 -24 2
-28 -4 -5 -8 -11 -7 -21 1 -11 9 -18 9 -26 1 -9 -9 -8 -12 2 -12 13 0 13 -2 0
-10 -26 -17 -49 -11 -62 15 -10 18 -17 22 -28 14 -13 -8 -13 -11 2 -19 18 -11
14 -50 -6 -50 -28 0 -56 14 -56 26 0 19 -15 18 -31 -3 -11 -13 -11 -17 -1 -20
6 -3 10 -9 6 -14 -3 -5 -12 -2 -20 6 -22 21 -34 19 -35 -7 -1 -13 -2 -27 -4
-33 -1 -5 -3 -15 -3 -22 -1 -6 -10 -10 -19 -9 -22 3 -30 36 -10 36 8 0 15 6
14 13 -1 33 4 47 18 47 26 0 16 19 -19 35 -34 16 -56 14 -56 -6 0 -5 6 -9 14
-9 8 0 18 -5 22 -12 4 -7 3 -8 -5 -4 -16 10 -41 -12 -34 -30 3 -8 -1 -14 -11
-14 -9 0 -16 3 -16 7 0 16 26 79 35 85 6 5 5 15 -3 29 -7 11 -11 24 -7 27 3 4
10 0 15 -8 6 -9 10 -10 10 -3 0 14 -19 27 -40 28 -8 0 -16 10 -18 23 -2 12
-10 22 -18 22 -8 0 -14 7 -14 16 0 11 6 13 19 9 11 -3 22 -1 26 5 8 13 25 13
25 0 0 -5 -7 -10 -15 -10 -8 0 -15 -4 -15 -10 0 -5 6 -10 14 -10 7 0 16 -9 19
-21 3 -12 10 -18 16 -15 7 5 7 15 -1 31 -13 29 -8 38 15 29 9 -3 15 -15 14
-27 -1 -16 4 -23 21 -25 18 -3 21 -6 12 -17 -9 -10 -6 -15 9 -20 12 -3 21 -11
21 -16 0 -12 -3 -12 -36 5 -31 17 -44 13 -44 -13 0 -21 16 -36 46 -43 18 -5
21 -2 16 15 -5 20 -4 20 19 4 25 -18 54 -23 44 -8 -3 5 -1 12 4 15 5 3 11 -1
15 -9 7 -19 26 -19 26 0 0 8 -9 19 -21 25 -25 14 -21 21 9 13 12 -3 19 -9 16
-14 -3 -5 -2 -9 3 -10 29 -3 47 -9 55 -21 5 -8 6 -3 2 15 -5 21 -3 27 11 27 9
0 15 6 12 13 -2 6 -10 11 -16 10 -6 -2 -11 5 -11 14 0 13 3 14 12 5 20 -20 40
-15 33 9 -7 22 -1 22 54 1 10 -4 12 -1 6 9 -5 8 -5 11 1 6 5 -5 10 -13 10 -18
3 -22 5 -23 14 -9 5 8 10 25 10 38 0 14 6 22 17 22 9 0 14 3 10 6 -8 8 18 34
33 34 15 0 8 22 -8 28 -7 2 -12 -3 -12 -12 0 -8 -8 -20 -18 -25 -22 -12 -57
12 -49 34 4 10 1 15 -11 15 -17 1 -62 29 -49 31 4 1 12 3 17 4 6 1 15 3 22 4
8 1 9 4 2 11 -5 5 -19 7 -32 4 -32 -9 -28 -44 9 -82 27 -27 28 -32 12 -32 -10
0 -26 9 -36 20 -9 11 -26 20 -37 20 -11 0 -20 7 -20 15 0 8 6 12 13 9 10 -3
17 12 26 52 13 57 11 64 -21 76 -3 2 -4 17 -1 33 l6 30 10 -28 c5 -15 13 -25
18 -21z m-567 17 c-5 -5 -12 -12 -16 -18 -4 -6 -8 -2 -8 8 0 9 7 17 17 17 9 0
12 -3 7 -7z m441 -2 c10 -17 -12 -21 -25 -6 -10 12 -10 15 3 15 9 0 18 -4 22
-9z m-1605 -22 c0 -14 -17 -10 -23 5 -4 10 -1 13 9 9 7 -3 14 -9 14 -14z m630
11 c0 -5 -4 -10 -10 -10 -5 0 -10 5 -10 10 0 6 5 10 10 10 6 0 10 -4 10 -10z
m170 -10 c14 -3 25 -12 25 -20 0 -7 6 -15 14 -18 10 -3 11 3 6 29 -7 33 -7 34
12 16 11 -9 23 -14 26 -11 4 4 12 3 19 -3 7 -5 25 -10 41 -11 20 -1 27 3 27
16 0 14 2 14 9 3 11 -17 -8 -41 -26 -34 -7 3 -13 -2 -13 -12 0 -12 5 -15 19
-10 11 3 22 1 26 -5 4 -6 -5 -10 -23 -10 -17 0 -32 6 -35 14 -4 10 -17 13 -47
9 -23 -3 -51 -1 -63 5 -12 6 -35 13 -50 15 -24 4 -28 2 -24 -14 3 -11 0 -19
-6 -19 -19 1 -47 26 -47 41 1 9 4 8 11 -5 9 -15 13 -16 20 -5 5 8 6 22 3 32
-6 19 -5 19 76 -3z m642 -2 c5 -15 -7 -96 -15 -105 -14 -13 -21 9 -9 27 11 18
9 19 -18 13 -24 -4 -30 -2 -30 13 0 21 38 64 56 64 7 0 14 -5 16 -12z m85 -18
c1 -11 -2 -20 -8 -20 -5 0 -9 2 -9 4 0 2 -3 11 -6 20 -4 10 -1 16 8 16 7 0 14
-9 15 -20z m108 -1 c-4 -5 8 -9 24 -9 26 0 31 -4 31 -25 0 -14 -9 -34 -20 -45
-11 -11 -20 -27 -20 -35 0 -22 -17 -18 -23 6 -4 15 0 23 12 26 20 5 44 47 34
57 -12 12 -22 6 -25 -16 -4 -24 -8 -25 -46 -13 -18 5 -22 3 -20 -16 2 -12 -3
-24 -10 -26 -7 -3 -10 1 -6 11 5 13 -1 16 -30 16 -29 0 -38 5 -50 29 -15 27
-12 41 6 41 4 0 8 -9 8 -20 0 -23 29 -27 48 -8 9 9 12 8 12 -7 1 -20 1 -20 12
0 6 11 12 21 14 23 1 2 15 -4 31 -13 21 -13 23 -13 9 -2 -19 16 -15 54 4 42 6
-4 8 -11 5 -16z m611 -18 c0 -15 -3 -17 -13 -9 -7 6 -10 14 -7 19 9 15 20 10
20 -10z m-2196 0 c0 -5 3 -18 6 -28 6 -16 5 -16 -9 2 -19 23 -21 35 -7 35 6 0
10 -4 10 -9z m1926 -16 c-3 -8 2 -19 12 -24 15 -9 15 -10 -4 -11 -30 0 -53 28
-33 41 21 13 32 11 25 -6z m94 -15 c0 -5 -5 -10 -11 -10 -5 0 -7 5 -4 10 3 6
8 10 11 10 2 0 4 -4 4 -10z m-140 -4 c0 -3 -4 -8 -10 -11 -5 -3 -10 -1 -10 4
0 6 5 11 10 11 6 0 10 -2 10 -4z m-1561 -23 c-7 -7 -6 -14 1 -18 5 -3 10 -12
10 -18 0 -7 -5 -4 -11 6 -6 9 -15 14 -21 11 -9 -6 -27 12 -28 27 0 3 13 6 29
5 21 -1 27 -4 20 -13z m1111 -13 c0 -10 -4 -22 -10 -25 -6 -4 -10 7 -10 25 0
18 4 29 10 25 6 -3 10 -15 10 -25z m-1186 4 c9 -3 13 -10 10 -15 -3 -5 4 -9
15 -9 12 0 21 -4 21 -10 0 -17 -40 -11 -47 8 -4 9 -11 20 -17 24 -13 9 -3 10
18 2z m1229 -35 c4 -15 11 -20 21 -16 9 4 16 2 16 -2 0 -5 -18 -12 -40 -16
-22 -4 -43 -12 -46 -17 -4 -7 -2 -8 4 -4 7 4 12 2 12 -4 0 -18 -34 -7 -38 13
-2 10 6 21 23 29 15 7 24 17 21 25 -3 7 1 13 8 13 8 0 16 -10 19 -21z m73 -51
c-18 -36 -14 -47 10 -27 15 12 16 12 11 -1 -4 -8 -10 -22 -13 -31 -5 -14 -10
-12 -33 12 -16 16 -34 29 -41 29 -8 0 -5 -10 10 -25 13 -14 19 -25 14 -25 -12
0 -44 37 -44 50 0 6 7 10 15 10 25 0 65 31 65 49 0 27 15 36 18 12 2 -12 -4
-35 -12 -53z m724 52 c0 -21 -15 -27 -25 -10 -3 6 -1 10 5 10 6 0 8 5 5 10 -3
6 -1 10 4 10 6 0 11 -9 11 -20z m270 -1 c0 -11 -4 -17 -10 -14 -5 3 -10 1 -10
-5 0 -6 -5 -8 -11 -4 -8 5 -6 10 5 16 9 5 14 13 11 19 -4 5 -1 9 4 9 6 0 11
-9 11 -21z m-575 -9 c3 -5 1 -10 -4 -10 -6 0 -11 5 -11 10 0 6 2 10 4 10 3 0
8 -4 11 -10z m175 0 c0 -11 -28 -20 -43 -14 -12 4 -16 -9 -20 -59 -1 -9 -6
-16 -12 -14 -11 5 -8 52 6 78 9 17 69 25 69 9z m470 -33 c0 -5 -4 -5 -10 -2
-5 3 -10 14 -10 23 0 15 2 15 10 2 5 -8 10 -19 10 -23z m-2335 -7 c3 -5 1 -10
-4 -10 -6 0 -11 5 -11 10 0 6 2 10 4 10 3 0 8 -4 11 -10z m45 6 c0 -3 -4 -8
-10 -11 -5 -3 -10 -1 -10 4 0 6 5 11 10 11 6 0 10 -2 10 -4z m527 -5 c18 16
18 -6 -1 -23 -11 -10 -9 -16 10 -31 24 -19 32 -47 14 -47 -5 0 -10 -4 -10 -10
0 -5 9 -10 19 -10 11 0 23 -4 26 -10 4 -6 -5 -10 -19 -10 -14 0 -26 5 -26 11
0 6 -7 8 -16 5 -12 -5 -14 -1 -8 17 3 12 11 28 16 35 8 8 6 12 -5 12 -9 0 -20
-7 -25 -17 -9 -15 -11 -14 -21 4 -8 16 -7 24 5 34 9 7 13 21 10 32 -4 15 -2
17 6 9 8 -8 15 -9 25 -1z m193 -19 c0 -15 -2 -15 -10 -2 -13 20 -13 33 0 25 6
-3 10 -14 10 -23z m1425 18 c-3 -5 -12 -7 -20 -3 -21 7 -19 13 6 13 11 0 18
-4 14 -10z m-1445 -30 c0 -10 4 -20 9 -22 15 -5 -8 -50 -29 -55 -11 -3 -20
-12 -20 -19 0 -19 9 -18 33 4 19 16 20 16 8 -5 -9 -19 -8 -24 8 -33 27 -14 32
-13 29 8 -4 22 26 23 30 0 2 -9 -5 -19 -17 -23 -12 -3 -21 -11 -21 -16 0 -6
-5 -7 -10 -4 -6 4 -18 1 -26 -6 -12 -10 -12 -14 -2 -20 10 -7 9 -9 -4 -9 -10
0 -18 -7 -18 -15 0 -8 -9 -19 -20 -25 -24 -13 -26 -5 -5 17 8 8 12 20 8 26 -7
11 -9 16 -12 35 0 5 -11 8 -23 7 -14 -2 -22 -8 -19 -16 2 -8 6 -22 8 -31 4
-12 0 -18 -11 -18 -24 0 -19 71 6 78 10 2 15 9 12 16 -3 6 8 -4 25 -22 17 -18
31 -28 31 -22 0 5 7 10 15 10 25 0 17 19 -16 39 -17 10 -30 22 -30 25 1 14 27
33 38 29 21 -8 15 36 -7 49 -18 11 -18 14 -3 30 18 20 33 15 33 -12z m593 17
c16 -11 16 -14 2 -32 -16 -20 -16 -20 -12 3 3 12 2 20 -1 18 -4 -2 -13 2 -20
10 -17 19 7 20 31 1z m632 3 c-3 -5 -11 -10 -16 -10 -6 0 -7 5 -4 10 3 6 11
10 16 10 6 0 7 -4 4 -10z m-1675 -21 c0 -5 -4 -9 -10 -9 -5 0 -10 7 -10 16 0
8 5 12 10 9 6 -3 10 -10 10 -16z m690 1 c0 -5 -4 -10 -10 -10 -5 0 -10 5 -10
10 0 6 5 10 10 10 6 0 10 -4 10 -10z m464 -5 c11 -8 18 -15 15 -15 -93 -11
-99 -10 -86 10 14 23 44 25 71 5z m726 5 c0 -5 -7 -10 -16 -10 -8 0 -12 5 -9
10 3 6 10 10 16 10 5 0 9 -4 9 -10z m63 -5 c-3 -9 -8 -14 -10 -11 -3 3 -2 9 2
15 9 16 15 13 8 -4z m-1311 -25 c-5 -32 -16 -39 -26 -15 -3 8 2 21 10 30 21
20 21 20 16 -15z m728 26 c0 -11 -19 -15 -25 -6 -3 5 1 10 9 10 9 0 16 -2 16
-4z m274 -21 c-4 -15 -1 -32 7 -42 13 -15 12 -15 -8 -2 -26 16 -27 22 -13 50
15 27 22 24 14 -6z m-1643 -4 c-8 -5 -10 -14 -6 -22 6 -11 5 -11 -5 -2 -14 12
-6 33 13 33 8 0 7 -3 -2 -9z m739 -6 c0 -8 -4 -15 -9 -15 -5 0 -12 -10 -14
-22 -3 -16 -5 -12 -6 12 l-2 35 -16 -38 c-14 -34 -20 -38 -43 -35 -21 3 -26 1
-23 -13 6 -21 47 -43 67 -36 10 4 16 1 16 -8 0 -23 20 -28 41 -9 18 16 19 16
19 -9 0 -14 3 -33 6 -41 5 -12 2 -15 -10 -10 -10 4 -19 -2 -27 -20 -14 -29
-30 -26 -22 5 4 12 0 25 -8 30 -10 6 -10 9 -1 9 6 0 12 5 12 10 0 15 -26 12
-40 -5 -9 -10 -9 -15 -1 -15 6 0 11 -4 11 -10 0 -18 -30 -11 -31 8 0 9 -3 12
-5 5 -3 -7 -12 -9 -20 -6 -8 3 -14 0 -14 -6 0 -6 5 -11 10 -11 6 0 10 -5 10
-10 0 -6 -11 -3 -24 7 -28 21 -28 21 19 37 34 12 35 14 20 29 -22 22 -36 21
-42 -3 -3 -11 -10 -20 -15 -20 -5 0 -7 4 -4 8 3 5 -5 8 -17 8 -12 -1 -23 6
-25 16 -3 13 3 16 25 13 27 -4 27 -4 6 7 -13 6 -23 17 -23 24 0 7 -7 17 -16
22 -13 7 -13 10 -1 20 11 9 16 7 27 -13 16 -30 22 -31 45 -5 10 11 29 20 42
20 18 0 23 5 23 25 0 21 5 25 30 25 20 0 30 -5 30 -15z m830 -5 c0 -5 -7 -7
-15 -4 -8 4 -12 10 -9 15 6 11 24 2 24 -11z m133 -23 c-3 -4 -11 -3 -18 3 -11
9 -12 15 -2 25 10 11 13 10 18 -4 4 -9 4 -20 2 -24z m-1523 23 c0 -5 -7 -10
-16 -10 -8 0 -12 5 -9 10 3 6 10 10 16 10 5 0 9 -4 9 -10z m1126 0 c21 9 22 7
17 -26 -5 -27 -1 -38 16 -53 18 -16 20 -24 12 -39 -7 -13 -7 -22 1 -30 21 -21
-2 -26 -25 -5 -12 11 -30 18 -39 16 -19 -5 -25 -23 -8 -23 6 0 8 -11 6 -25 -3
-14 0 -25 6 -25 6 0 8 -3 5 -6 -11 -11 -38 18 -32 34 3 8 0 21 -6 28 -19 23 0
37 42 30 31 -5 39 -3 39 9 0 8 -12 18 -26 21 -15 4 -23 12 -20 20 3 7 -2 18
-10 25 -8 7 -13 18 -10 24 2 7 0 18 -5 24 -6 7 -5 8 2 2 7 -6 21 -6 35 -1z
m-1176 -8 c0 -10 -22 -32 -32 -32 -5 0 -3 9 4 20 13 20 28 27 28 12z m78 -27
c-6 -28 1 -31 21 -12 14 12 14 8 -5 -38 -5 -13 -2 -14 22 -5 33 13 54 7 54
-17 0 -15 -2 -15 -16 3 -11 13 -17 15 -20 7 -3 -7 -12 -13 -20 -13 -17 0 -19
-20 -1 -20 16 -1 -31 -40 -49 -40 -7 0 -16 4 -19 10 -4 6 4 9 17 7 13 -1 23 3
22 11 -1 6 -2 26 -2 42 -2 22 -7 30 -20 30 -28 0 -43 -20 -31 -42 7 -14 6 -18
-5 -18 -10 0 -13 6 -10 15 4 10 0 15 -11 15 -9 0 -14 4 -11 9 4 5 -2 8 -11 7
-9 -2 -19 -9 -21 -16 -3 -7 0 -10 7 -6 6 4 11 4 11 -1 0 -10 -19 -40 -21 -33
-11 56 -9 60 18 71 15 7 36 11 46 11 9 0 17 6 17 14 0 8 7 14 15 14 8 0 15 5
15 10 0 6 3 10 6 10 4 0 4 -11 2 -25z m577 -25 c-4 -6 -15 -10 -27 -10 -14 0
-18 5 -14 16 3 9 6 22 6 30 0 10 6 8 20 -6 12 -12 18 -25 15 -30z m220 30 c3
-5 1 -10 -4 -10 -6 0 -11 5 -11 10 0 6 2 10 4 10 3 0 8 -4 11 -10z m605 0 c0
-5 7 -10 15 -10 8 0 15 -4 15 -10 0 -6 -10 -5 -25 2 -25 11 -34 28 -15 28 6 0
10 -4 10 -10z m-1230 -16 c0 -9 -5 -14 -12 -12 -18 6 -21 28 -4 28 9 0 16 -7
16 -16z m-970 -4 c0 -5 0 -12 0 -15 0 -14 -13 -8 -16 8 -1 9 2 17 7 17 5 0 9
-4 9 -10z m1970 -29 c-1 -13 -3 -13 -15 3 -19 26 -19 42 0 26 8 -7 15 -20 15
-29z m650 18 c0 -5 -4 -9 -10 -9 -5 0 -10 7 -10 16 0 8 5 12 10 9 6 -3 10 -10
10 -16z m-2045 1 c3 -5 1 -10 -4 -10 -6 0 -11 5 -11 10 0 6 2 10 4 10 3 0 8
-4 11 -10z m-195 -15 c7 -9 8 -15 2 -15 -5 0 -12 7 -16 15 -3 8 -4 15 -2 15 2
0 9 -7 16 -15z m2097 -27 c-3 -8 -6 -5 -6 6 -1 11 2 17 5 13 3 -3 4 -12 1 -19z
m-2193 -33 c3 -8 1 -15 -4 -15 -6 0 -10 7 -10 15 0 8 2 15 4 15 2 0 6 -7 10
-15z m839 -16 c4 -16 3 -18 -9 -8 -7 6 -11 15 -8 20 8 13 11 11 17 -12z m918
11 c6 0 7 -4 4 -10 -10 -16 -45 -12 -45 6 0 11 5 14 16 10 9 -3 20 -6 25 -6z
m-1169 -35 c-3 -5 1 -4 10 3 21 17 35 -3 15 -22 -9 -9 -19 -11 -30 -4 -11 5
-24 5 -37 -2 -13 -7 -20 -7 -20 -1 0 6 11 13 25 17 17 4 25 13 25 28 0 16 2
18 9 6 6 -8 7 -19 3 -25z m956 -1 c-14 -14 -15 -14 -10 11 3 19 8 23 15 16 8
-8 7 -16 -5 -27z m-103 16 c4 -6 15 -8 25 -5 14 4 19 -1 22 -25 4 -24 1 -30
-11 -28 -9 2 -15 11 -13 21 3 20 -33 24 -41 5 -3 -7 -6 -1 -6 15 -1 27 12 36
24 17z m-639 -15 c12 -12 12 -18 2 -35 -13 -21 -28 -27 -28 -11 0 5 8 12 18
16 16 6 16 7 0 19 -18 13 -24 26 -12 26 3 0 12 -7 20 -15z m-392 -11 c5 -13
-6 -18 -26 -15 -5 0 -8 -4 -8 -10 0 -5 -4 -7 -10 -4 -5 3 -10 14 -10 23 0 21
46 26 54 6z m469 1 c-3 -9 -8 -14 -10 -11 -3 3 -2 9 2 15 9 16 15 13 8 -4z
m852 -6 c-3 -4 -12 -6 -20 -3 -8 4 -13 10 -10 15 3 4 12 6 20 3 8 -4 13 -10
10 -15z m145 11 c0 -5 -4 -10 -10 -10 -5 0 -10 5 -10 10 0 6 5 10 10 10 6 0
10 -4 10 -10z m-2910 -10 c0 -5 -5 -10 -11 -10 -5 0 -7 5 -4 10 3 6 8 10 11
10 2 0 4 -4 4 -10z m2421 0 c3 -20 4 -25 12 -37 5 -8 3 -13 -5 -13 -14 0 -39
45 -30 55 9 8 22 6 23 -5z m381 -5 c0 -5 -5 -11 -11 -13 -6 -2 -11 4 -11 13 0
9 5 15 11 13 6 -2 11 -8 11 -13z m-2417 -5 c3 -5 1 -10 -4 -10 -6 0 -11 5 -11
10 0 6 2 10 4 10 3 0 8 -4 11 -10z m1495 0 c0 -5 -2 -10 -4 -10 -3 0 -8 5 -11
10 -3 6 -1 10 4 10 6 0 11 -4 11 -10z m1314 -5 c3 -8 1 -15 -3 -15 -5 0 -11 7
-15 15 -3 8 -1 15 3 15 5 0 11 -7 15 -15z m-3753 -8 c-6 -8 -8 -16 -5 -19 2
-3 -1 -8 -9 -11 -10 -4 -13 1 -9 19 2 13 11 24 19 24 12 0 13 -3 4 -13z m724
1 c5 4 5 1 1 -6 -5 -9 -12 -9 -27 -2 -10 6 -19 13 -19 16 0 2 8 0 19 -5 10 -6
22 -7 26 -3z m-1575 -8 c0 -5 -4 -10 -10 -10 -5 0 -10 5 -10 10 0 6 5 10 10
10 6 0 10 -4 10 -10z m2643 -5 c-3 -9 -8 -14 -10 -11 -3 3 -2 9 2 15 9 16 15
13 8 -4z m677 5 c0 -5 -5 -10 -11 -10 -5 0 -7 5 -4 10 3 6 8 10 11 10 2 0 4
-4 4 -10z m381 -7 c13 -17 13 -17 -6 -3 -11 8 -22 16 -24 17 -2 2 0 3 6 3 6 0
17 -8 24 -17z m183 -21 c-8 -2 -14 -11 -14 -20 0 -13 -3 -13 -12 -4 -9 9 -10
15 -2 20 6 4 14 16 18 27 l8 20 8 -20 c5 -14 3 -21 -6 -23z m-1127 13 c-6 -7
-15 -11 -19 -8 -14 8 -8 19 12 20 16 1 17 -1 7 -12z m380 -17 c-3 -7 -5 -2 -5
12 0 14 2 19 5 13 2 -7 2 -19 0 -25z m659 23 c-4 -5 6 -23 20 -40 29 -35 16
-43 -16 -9 -21 23 -27 58 -9 58 5 0 8 -4 5 -9z m-2119 -28 c-3 -3 -11 -2 -17
2 -9 6 -9 10 1 16 14 8 27 -7 16 -18z m1672 -26 c4 -4 24 -1 44 8 20 8 38 11
41 6 8 -12 -4 -20 -20 -14 -8 3 -21 0 -29 -7 -17 -14 -55 -4 -55 16 0 8 -6 14
-12 14 -9 0 -8 4 2 10 11 7 16 5 18 -8 2 -9 7 -20 11 -25z m171 33 c0 -5 -7
-10 -16 -10 -8 0 -12 5 -9 10 3 6 10 10 16 10 5 0 9 -4 9 -10z m-3227 -15 c-3
-9 -8 -14 -10 -11 -3 3 -2 9 2 15 9 16 15 13 8 -4z m2322 5 c3 -5 -1 -10 -9
-10 -9 0 -16 5 -16 10 0 6 4 10 9 10 6 0 13 -4 16 -10z m670 -11 c-10 -15 -25
-10 -19 6 4 8 10 12 15 9 5 -3 7 -10 4 -15z m390 11 c3 -5 1 -10 -4 -10 -6 0
-11 5 -11 10 0 6 2 10 4 10 3 0 8 -4 11 -10z m295 0 c0 -5 -5 -10 -11 -10 -5
0 -7 5 -4 10 3 6 8 10 11 10 2 0 4 -4 4 -10z m223 -16 c4 -23 3 -24 -10 -11
-9 8 -12 20 -9 26 10 16 13 14 19 -15z m-3441 -6 c-7 -7 -12 -8 -12 -2 0 14
12 26 19 19 2 -3 -1 -11 -7 -17z m388 12 c0 -5 -5 -10 -11 -10 -5 0 -7 5 -4
10 3 6 8 10 11 10 2 0 4 -4 4 -10z m2958 -4 c-7 -8 -16 -12 -21 -9 -11 7 2 23
19 23 12 0 12 -2 2 -14z m352 4 c-8 -5 -19 -10 -25 -10 -5 0 -3 5 5 10 8 5 20
10 25 10 6 0 3 -5 -5 -10z m-4282 -9 c10 -6 9 -10 -7 -14 -14 -3 -21 0 -21 9
0 16 9 18 28 5z m1067 -21 c3 -5 1 -10 -4 -10 -6 0 -11 5 -11 10 0 6 2 10 4
10 3 0 8 -4 11 -10z"/>
<path d="M3226 1814 c-8 -20 11 -45 29 -38 10 4 10 11 1 30 -13 28 -21 30 -30
8z"/>
<path d="M3656 1633 c-6 -14 -5 -15 5 -6 7 7 10 15 7 18 -3 3 -9 -2 -12 -12z"/>
<path d="M3180 1630 c-8 -5 -24 -7 -35 -5 -11 3 -14 2 -7 -1 10 -5 10 -9 0
-22 -11 -15 -11 -15 4 -4 14 11 17 10 23 -8 5 -17 12 -20 31 -16 17 5 26 2 30
-9 4 -8 14 -15 24 -15 10 0 20 -6 23 -12 4 -10 7 -10 17 -1 11 10 10 14 -6 19
-25 10 -90 66 -86 76 3 10 0 10 -18 -2z m20 -30 c0 -5 -7 -10 -16 -10 -8 0
-12 5 -9 10 3 6 10 10 16 10 5 0 9 -4 9 -10z"/>
<path d="M3250 1615 c0 -14 38 -36 45 -26 9 16 -6 40 -26 38 -10 -1 -19 -6
-19 -12z"/>
<path d="M3310 1505 c0 -8 2 -15 4 -15 2 0 6 7 10 15 3 8 1 15 -4 15 -6 0 -10
-7 -10 -15z"/>
<path d="M4290 1560 c0 -5 5 -10 10 -10 6 0 10 5 10 10 0 6 -4 10 -10 10 -5 0
-10 -4 -10 -10z"/>
<path d="M3198 1245 c3 -20 7 -23 18 -14 17 14 18 5 4 -22 -8 -15 -7 -19 5
-19 8 0 15 9 15 20 0 10 10 25 23 32 l22 12 -25 7 c-53 15 -68 11 -62 -16z"/>
<path d="M3581 1182 c-17 -31 -13 -40 5 -14 9 13 14 26 11 29 -3 2 -10 -4 -16
-15z"/>
<path d="M4315 1239 c-10 -15 1 -23 20 -15 9 3 13 10 10 16 -8 13 -22 13 -30
-1z"/>
<path d="M4415 1130 c-3 -5 1 -10 9 -10 9 0 16 5 16 10 0 6 -4 10 -9 10 -6 0
-13 -4 -16 -10z"/>
<path d="M4018 1003 c6 -2 12 -12 12 -21 0 -13 3 -13 12 -4 10 10 10 15 -2 22
-8 5 -19 9 -25 9 -5 0 -4 -3 3 -6z"/>
<path d="M3791 1361 c-9 -15 -7 -18 11 -17 12 1 22 9 24 19 3 23 -23 22 -35
-2z"/>
<path d="M3908 1313 c7 -3 16 -2 19 1 4 3 -2 6 -13 5 -11 0 -14 -3 -6 -6z"/>
<path d="M3742 971 c-11 -7 -11 -9 1 -14 9 -3 18 1 21 9 6 16 -2 18 -22 5z"/>
<path d="M4295 1110 c-8 -13 4 -32 16 -25 12 8 12 35 0 35 -6 0 -13 -4 -16
-10z"/>
<path d="M378 1675 c-4 -4 -43 -7 -88 -7 -44 1 -78 -3 -75 -8 3 -5 1 -11 -5
-15 -5 -3 -10 -1 -10 4 0 6 -9 11 -20 11 -23 0 -24 -3 -10 -33 10 -21 10 -21
-6 1 -16 21 -18 22 -35 6 -11 -10 -19 -23 -19 -30 0 -22 85 -55 147 -57 32 -2
63 -6 69 -10 7 -4 56 -7 110 -7 55 -1 162 -2 239 -3 162 -1 534 10 615 20 30
3 188 5 350 5 308 -2 424 4 414 20 -3 5 4 6 18 3 32 -8 60 16 63 53 2 28 -1
33 -29 41 -52 14 -745 4 -763 -11 -9 -7 -13 -7 -13 1 0 7 -26 11 -75 11 -43 0
-75 -4 -75 -10 0 -5 -5 -10 -11 -10 -5 0 -7 5 -3 11 4 8 -29 10 -112 9 -66 0
-243 2 -394 6 -151 3 -278 3 -282 -1z m419 -37 c-3 -8 -6 -5 -6 6 -1 11 2 17
5 13 3 -3 4 -12 1 -19z m848 2 c-3 -5 -12 -7 -20 -3 -21 7 -19 13 6 13 11 0
18 -4 14 -10z m-335 -15 c0 -8 -4 -15 -9 -15 -5 0 -11 7 -15 15 -3 9 0 15 9
15 8 0 15 -7 15 -15z m460 5 c0 -5 -5 -10 -11 -10 -5 0 -7 5 -4 10 3 6 8 10
11 10 2 0 4 -4 4 -10z m-204 -47 c-10 -10 -19 5 -10 18 6 11 8 11 12 0 2 -7 1
-15 -2 -18z m-615 7 c10 0 19 -4 19 -10 0 -15 -34 -12 -56 6 -17 14 -17 15 -1
10 10 -3 27 -6 38 -6z m296 -10 c3 -10 2 -11 -4 -4 -4 7 -19 14 -33 17 -22 4
-21 5 4 4 17 -1 31 -9 33 -17z m478 10 c3 -5 1 -10 -4 -10 -6 0 -11 5 -11 10
0 6 2 10 4 10 3 0 8 -4 11 -10z"/>
<path d="M370 1439 c-14 -4 -40 -7 -58 -8 -23 -1 -31 -5 -26 -13 5 -8 2 -9 -9
-5 -10 4 -28 2 -40 -2 -19 -8 -23 -15 -19 -40 3 -24 11 -32 41 -42 20 -7 55
-13 78 -13 24 -1 43 -3 43 -6 0 -7 37 -9 353 -16 147 -3 267 -2 267 3 0 5 51
9 114 10 62 1 123 6 134 12 12 6 23 7 26 2 3 -5 156 -9 341 -9 259 -1 338 2
347 12 7 7 19 11 26 8 7 -2 24 3 37 12 14 9 25 12 25 6 0 -5 -4 -10 -10 -10
-5 0 -10 -5 -10 -11 0 -16 142 -1 156 17 6 7 14 11 17 7 10 -9 37 17 37 37 0
40 -32 51 -151 52 -184 2 -237 -1 -244 -12 -4 -6 -13 -7 -23 -1 -19 10 -221
13 -236 3 -6 -3 -50 -5 -98 -3 -64 2 -88 -1 -88 -9 0 -10 -3 -10 -15 0 -8 6
-18 10 -22 7 -4 -3 -35 -1 -68 4 -67 9 -101 10 -357 10 -114 -1 -179 -4 -183
-11 -5 -8 -11 -8 -19 -1 -8 6 -75 10 -168 9 -85 0 -159 1 -164 4 -5 3 -20 2
-34 -3z m85 -19 c3 -5 2 -10 -4 -10 -5 0 -13 5 -16 10 -3 6 -2 10 4 10 5 0 13
-4 16 -10z m1585 6 c0 -2 -7 -6 -15 -10 -8 -3 -15 -1 -15 4 0 6 7 10 15 10 8
0 15 -2 15 -4z m-1657 -13 c-7 -2 -19 -2 -25 0 -7 3 -2 5 12 5 14 0 19 -2 13
-5z m1102 -3 c3 -5 1 -10 -4 -10 -6 0 -11 5 -11 10 0 6 2 10 4 10 3 0 8 -4 11
-10z m665 -20 c0 -5 -10 -10 -22 -9 -22 0 -22 1 -3 9 11 5 21 9 23 9 1 1 2 -3
2 -9z m-1278 -22 c-7 -7 -12 -8 -12 -2 0 14 12 26 19 19 2 -3 -1 -11 -7 -17z
m358 8 c0 -3 -4 -8 -10 -11 -5 -3 -10 -1 -10 4 0 6 5 11 10 11 6 0 10 -2 10
-4z m-215 -16 c3 -5 1 -10 -4 -10 -6 0 -11 5 -11 10 0 6 2 10 4 10 3 0 8 -4
11 -10z m720 0 c3 -5 -3 -10 -15 -10 -12 0 -18 5 -15 10 3 6 10 10 15 10 5 0
12 -4 15 -10z m-1008 -22 c-3 -8 -6 -5 -6 6 -1 11 2 17 5 13 3 -3 4 -12 1 -19z
m1188 -16 c-3 -3 -11 0 -18 7 -9 10 -8 11 6 5 10 -3 15 -9 12 -12z"/>
<path d="M2016 1212 c-3 -5 -39 -7 -81 -4 -41 2 -75 0 -74 -5 4 -20 -2 -24
-18 -12 -10 8 -14 9 -10 2 4 -6 3 -14 -2 -17 -5 -3 -11 3 -14 14 -4 17 -14 20
-55 20 -64 0 -82 -7 -83 -34 0 -21 0 -20 -9 2 -9 22 -14 23 -97 20 -77 -3 -88
-5 -85 -20 2 -11 -3 -18 -13 -18 -12 0 -15 6 -10 20 6 20 3 21 -62 19 -37 -1
-78 1 -90 5 -22 7 -49 -12 -70 -49 -8 -14 -14 -15 -29 -7 -17 10 -17 11 -2 12
10 0 22 9 28 19 10 19 5 20 -169 19 -98 0 -193 3 -210 7 -19 4 -37 2 -46 -5
-9 -8 -15 -8 -20 0 -8 13 -329 12 -485 -1 -58 -5 -116 -9 -130 -10 -66 -2 -83
-55 -27 -89 17 -11 38 -18 45 -15 7 3 34 0 58 -6 40 -10 46 -10 59 7 14 18 14
18 15 -5 0 -18 3 -21 13 -12 8 6 17 7 21 3 9 -9 11 -9 216 -16 92 -4 227 -1
305 5 168 13 365 18 744 19 403 0 511 16 511 74 0 29 -13 39 -66 54 -49 14
-51 14 -58 4z m-1486 -62 c0 -5 -5 -10 -11 -10 -5 0 -7 5 -4 10 3 6 8 10 11
10 2 0 4 -4 4 -10z m-240 -10 c0 -5 -2 -10 -4 -10 -3 0 -8 5 -11 10 -3 6 -1
10 4 10 6 0 11 -4 11 -10z m1660 0 c0 -5 7 -7 15 -4 8 4 15 1 15 -5 0 -16 -25
-13 -40 4 -9 10 -9 15 -1 15 6 0 11 -4 11 -10z m90 -10 c0 -5 -5 -10 -11 -10
-5 0 -7 5 -4 10 3 6 8 10 11 10 2 0 4 -4 4 -10z m-1480 -20 c0 -5 -4 -10 -10
-10 -5 0 -10 5 -10 10 0 6 5 10 10 10 6 0 10 -4 10 -10z"/>
</g>
</svg>
